<?xml version="1.0" encoding="UTF-8"?>
<!DOCTYPE svg PUBLIC "-//W3C//DTD SVG 1.0//EN" "http://www.w3.org/TR/2001/REC-SVG-20010904/DTD/svg10.dtd">
<!-- Creator: CorelDRAW 2020 (64 Bit) -->
<svg xmlns="http://www.w3.org/2000/svg" xml:space="preserve" width="296.496mm" height="228.206mm" version="1.0" style="shape-rendering:geometricPrecision; text-rendering:geometricPrecision; image-rendering:optimizeQuality; fill-rule:evenodd; clip-rule:evenodd"
viewBox="0 0 29649.4 22820.48"
 xmlns:xlink="http://www.w3.org/1999/xlink"
 xmlns:xodm="http://www.corel.com/coreldraw/odm/2003">
 <defs>
  <style type="text/css">
   <![CDATA[
    .str0 {stroke:#535461;stroke-width:52.92;stroke-miterlimit:22.9256}
    .fil14 {fill:none;fill-rule:nonzero}
    .fil3 {fill:#535461;fill-rule:nonzero}
    .fil12 {fill:#6394E2;fill-rule:nonzero}
    .fil11 {fill:#68739D;fill-rule:nonzero}
    .fil18 {fill:#96A2D0;fill-rule:nonzero}
    .fil2 {fill:#AEBEE1;fill-rule:nonzero}
    .fil13 {fill:#B96B6B;fill-rule:nonzero}
    .fil9 {fill:#C90036;fill-rule:nonzero}
    .fil1 {fill:#D6D6E3;fill-rule:nonzero}
    .fil8 {fill:#D9DFE8;fill-rule:nonzero}
    .fil5 {fill:#E3EDF9;fill-rule:nonzero}
    .fil17 {fill:#F37291;fill-rule:nonzero}
    .fil7 {fill:#F8B9BF;fill-rule:nonzero}
    .fil16 {fill:#FA595F;fill-rule:nonzero}
    .fil10 {fill:black;fill-rule:nonzero;fill-opacity:0.011765}
    .fil4 {fill:black;fill-rule:nonzero;fill-opacity:0.101961}
    .fil0 {fill:#C90036;fill-rule:nonzero;fill-opacity:0.101961}
    .fil6 {fill:url(#id0);fill-rule:nonzero}
    .fil15 {fill:url(#id1);fill-rule:nonzero}
   ]]>
  </style>
  <linearGradient id="id0" gradientUnits="userSpaceOnUse" x1="21931.54" y1="16648.01" x2="23043.45" y2="3301.13">
   <stop offset="0" style="stop-opacity:0.25098; stop-color:gray"/>
   <stop offset="0.541176" style="stop-opacity:0.121569; stop-color:gray"/>
   <stop offset="1" style="stop-opacity:0.101961; stop-color:gray"/>
  </linearGradient>
  <linearGradient id="id1" gradientUnits="userSpaceOnUse" xlink:href="#id0" x1="2128741.64" y1="-2647945.78" x2="2128741.64" y2="-9568950.29">
  </linearGradient>
 </defs>
 <g id="Camada_x0020_1">
  <metadata id="CorelCorpID_0Corel-Layer"/>
  <path class="fil0" d="M27781.22 12918.46c-1092.45,1643.32 -815.97,3927.45 -265.91,5736.66 185.21,605.63 394.49,1245.65 270.14,1915.04 -152.14,818.61 -772.31,1449.11 -1408.1,1802.07 -1158.6,643.73 -2503.47,590.81 -3501.21,-137.32 -862.27,-629.44 -1448.32,-1703.38 -2328.31,-2301.86 -1470.81,-997.99 -3434.8,-464.07 -5130.76,393.71 -1199.88,606.16 -2517.23,1379.26 -3654.4,894.28 -800.09,-341.31 -1318.67,-1260.47 -1576.38,-2252.91 -124.35,-479.16 -205.85,-1001.17 -470.96,-1370.8 -158.75,-219.6 -370.42,-370.42 -589.76,-492.92 -2003.14,-1130.81 -4646.04,-295 -6584.09,-1566.58 -1307.83,-857.24 -2085.97,-2580.73 -2376.47,-4410.31 -290.51,-1829.58 -147.37,-3775.57 46.83,-5690.62 137.85,-1360.74 335.49,-2816.47 1094.57,-3907.33 803,-1153.84 2105.54,-1645.17 3254.36,-1506.79 1148.82,138.38 2158.98,823.63 3038.19,1650.98 1098.8,1031.87 2099.98,2340.49 3495.12,2698.73 950.11,244.74 1974.05,15.08 2972.57,-105.83 1669.51,-199.76 3323.94,-88.64 4967.25,43.39 1573.47,126.47 3156.99,274.9 4634.68,814.11 1045.62,381.53 1861.07,1141.4 2841.34,1646.76 638.97,329.41 1350.69,387.09 1949.44,820.2 737.65,533.14 1389.58,1499.91 1133.2,2694.5 -243.68,1137.43 -1231.62,1759.73 -1811.33,2632.84z"/>
  <path class="fil0" d="M23304.5 8422.16l1081.87 0 0 -1637.76 -1081.87 0 0 1637.76z"/>
  <path class="fil0" d="M23409.54 8262.88l871.53 0 0 -1319.2 -871.53 0 0 1319.2z"/>
  <path class="fil0" d="M21108.48 7284.46l1661.57 0 0 -1637.76 -1661.57 0 0 1637.76z"/>
  <path class="fil0" d="M21269.88 7125.18l1338.52 0 0 -1319.2 -1338.52 0 0 1319.2z"/>
  <path class="fil0" d="M1709.9 3345.11l5078.64 0 0 -135.2 -5078.64 0 0 135.2z"/>
  <path class="fil0" d="M1709.9 4006.3l5078.64 0 0 -135.2 -5078.64 0 0 135.2z"/>
  <rect class="fil1" x="10277.31" y="11975.76" width="518.85" height="5798.04"/>
  <path class="fil2" d="M25951.39 12584.56l0 -5348.25c0.13,-310.39 251.84,-561.96 562.23,-561.96 0,0 0,0 0,0l0 -0.01c309.95,0.56 561.04,251.99 561.18,561.98l0.01 6472.71c-0.01,310.45 -251.79,562.23 -562.25,562.23l-3482.15 0.01c-310.47,-0.01 -562.25,-251.79 -562.25,-562.25l0.01 0.01c-0.01,-310.47 251.77,-562.25 562.23,-562.25l2358.75 0.01c310.45,-0.01 562.23,-251.79 562.23,-562.25l0.01 0.01z"/>
  <path class="fil3" d="M25951.39 12584.56l0 -5348.25c0.13,-310.39 251.84,-561.96 562.23,-561.96 0,0 0,0 0,0l0 -0.01c309.95,0.56 561.04,251.99 561.18,561.98l0.01 6472.71c-0.01,310.45 -251.79,562.23 -562.25,562.23l-3482.15 0.01c-310.47,-0.01 -562.25,-251.79 -562.25,-562.25l0.01 0.01c-0.01,-310.47 251.77,-562.25 562.23,-562.25l2358.75 0.01c310.45,-0.01 562.23,-251.79 562.23,-562.25l0.01 0.01z"/>
  <path class="fil1" d="M22468.96 13678.87c16.01,-298.3 262.64,-532.09 561.43,-532.09 0,0 0,0 0,0l2358.76 0.01c310.45,-0.01 562.23,-251.79 562.23,-562.25l0.01 -5348.24c-0.01,-0.03 -0.01,-0.3 -0.01,-0.37 0,-299.96 235.65,-547.28 535.26,-561.62l0 7004.55 -4017.67 0z"/>
  <path class="fil2" d="M5093.36 12765.01l0 -5348.25c0.02,0.01 0.02,0.01 0.02,0.01 0,-309.98 -250.95,-561.55 -560.94,-562.24l0.01 -0.01c-310.45,0.01 -562.23,251.79 -562.23,562.25l-0.01 6472.71c0.01,0.42 0.01,0.9 0.01,1.31 0,310.46 251.78,562.24 562.24,562.24 0,0 0,0 0,0l3481.88 0.01c310.48,-0.01 562.26,-251.79 562.26,-562.25l-0.02 0.01c0.02,-310.47 -251.76,-562.25 -562.22,-562.25l-2358.49 0.01c-0.04,-0.01 -0.18,-0.01 -0.25,-0.01 -310.46,0 -562.24,-251.78 -562.24,-562.24 0,-0.41 0,-0.89 0,-1.3l-0.02 -0.01z"/>
  <path class="fil3" d="M5093.36 12765.01l0 -5348.25c0.02,0.01 0.02,0.01 0.02,0.01 0,-309.98 -250.95,-561.55 -560.94,-562.24l0.01 -0.01c-310.45,0.01 -562.23,251.79 -562.23,562.25l-0.01 6472.71c0.01,0.42 0.01,0.9 0.01,1.31 0,310.46 251.78,562.24 562.24,562.24 0,0 0,0 0,0l3481.88 0.01c310.48,-0.01 562.26,-251.79 562.26,-562.25l-0.02 0.01c0.02,-310.47 -251.76,-562.25 -562.22,-562.25l-2358.49 0.01c-0.04,-0.01 -0.18,-0.01 -0.25,-0.01 -310.46,0 -562.24,-251.78 -562.24,-562.24 0,-0.41 0,-0.89 0,-1.3l-0.02 -0.01z"/>
  <path class="fil1" d="M8575.79 13859.31c-16,-298.3 -262.63,-532.09 -561.42,-532.09 0,0 0,0 0,0l-2358.5 0.02c-0.04,-0.01 -0.18,-0.01 -0.25,-0.01 -310.46,0 -562.24,-251.78 -562.24,-562.24 0,0 0,0 0,0l-0.02 -5348.24c-0.05,-299.64 -235.21,-546.68 -534.42,-561.43l-0.04 7003.98 4016.88 0z"/>
  <rect class="fil1" x="20542.28" y="11975.77" width="518.85" height="5933.24"/>
  <path class="fil4" d="M10277.32 12404.38l518.85 0 0 -428.63 -518.85 0 0 428.63z"/>
  <path class="fil4" d="M20542.28 12404.38l518.85 0 0 -428.63 -518.85 0 0 428.63z"/>
  <path class="fil4" d="M12130.44 8444.92c-8.29,91.37 -18.79,183.97 -31.49,277.81l-73.29 0 0 -277.81 104.78 0z"/>
  <path class="fil3" d="M14256.35 11330.97c1.59,93.93 -66.15,170.92 -150.02,170.92l-1583.52 0.01 0 -165.1 1317.62 0c56.89,0 92.34,-68.79 63.76,-123.83l-1194.85 -2430.18c-17.2,-35.69 -52.96,-58.77 -92.58,-59.78l-591.1 -0.01 0 -277.81 746.38 -0.01c27.73,0.71 52.78,16.86 64.84,41.82l1369.74 2645.81c31.5,61.3 48.58,129.23 49.74,198.14l-0.02 0.02z"/>
  <path class="fil3" d="M11348.07 10890.18l-21.7 36.51 -202.94 -135.47 627.86 -4827.82 161.67 0c0,0 6.61,22.23 17.46,64.56 108.22,417.25 639.76,2780.22 -582.35,4862.22z"/>
  <path class="fil4" d="M11930.16 6027.97l-582.08 4862.22 -21.7 36.51 -202.94 -135.47 627.86 -4827.82 161.66 0c0,0 6.35,23.02 17.2,64.56z"/>
  <rect class="fil1" transform="matrix(0.118924 -0.992903 0.992903 0.118924 10939.8 10886.2)" width="5008.26" height="383.65"/>
  <path class="fil5" d="M9634.38 11332.83c-0.13,24.92 -20.31,45.1 -45.24,45.24l-67.74 0c-24.96,0 -45.22,-20.26 -45.22,-45.24 -0.11,-0.88 -0.17,-1.77 -0.17,-2.65 0,-0.88 0.06,-1.77 0.16,-2.65 2.8,-22.58 21.95,-39.59 44.71,-39.68l67.72 0c20.69,0.21 38.63,14.34 43.67,34.39 1.15,3.41 1.87,6.98 2.11,10.58l0 0.01z"/>
  <path class="fil5" d="M9837.31 11332.83c-0.12,24.92 -20.3,45.1 -45.23,45.24l-67.75 0c-24.96,0 -45.22,-20.26 -45.22,-45.24 0.02,-4.22 0.65,-8.41 1.85,-12.44 1.99,-7.34 5.93,-14.01 11.38,-19.32 8.3,-8.46 19.67,-13.23 31.53,-13.23 0.07,0 0.15,0 0.22,0l67.71 0.01c0.09,-0.01 0.16,-0.01 0.23,-0.01 17.76,0 33.9,10.33 41.33,26.46 2.58,5.84 3.94,12.15 3.97,18.53l-0.02 0z"/>
  <path class="fil5" d="M10017.76 11332.83c-0.12,24.92 -20.3,45.1 -45.23,45.24l-67.75 0c-24.96,0 -45.22,-20.26 -45.22,-45.24 0,-0.25 -0.01,-0.51 -0.01,-0.76 0,-6.22 1.36,-12.39 3.98,-18.03 7.47,-15.93 23.4,-26.21 41,-26.45l67.72 -0.01c0.1,0 0.19,0 0.28,0 24.84,0 44.98,20.14 44.98,44.98 0,0.09 0,0.18 0,0.26l0.25 0.01z"/>
  <path class="fil5" d="M10220.96 11332.83c-0.12,24.92 -20.3,45.1 -45.23,45.24l-67.75 0c-24.95,-0.02 -45.19,-20.27 -45.19,-45.24 0,-9.27 2.86,-18.33 8.17,-25.93l5.29 -5.82c8.3,-8.47 19.67,-13.24 31.53,-13.24 0.07,0 0.15,0 0.22,0l67.71 0.01c12.48,0.15 24.36,5.41 32.83,14.55 7.95,8.13 12.42,19.05 12.44,30.42l-0.02 0.01z"/>
  <path class="fil4" d="M9633.05 11321.98c0.89,3.41 1.34,6.92 1.34,10.44 0,0.13 0,0.28 0,0.41 -0.14,24.92 -20.32,45.1 -45.25,45.24l-67.74 0c-24.96,0 -45.22,-20.26 -45.22,-45.24 -0.11,-0.88 -0.17,-1.77 -0.17,-2.65 0,-0.88 0.06,-1.77 0.16,-2.65l156.88 -5.55z"/>
  <path class="fil4" d="M9833.61 11314.84c2.4,5.6 3.66,11.63 3.72,17.72 -0.14,24.93 -20.32,45.11 -45.25,45.25l-67.75 0c-24.96,-0.01 -45.22,-20.27 -45.22,-45.25 0.02,-4.21 0.65,-8.4 1.85,-12.43l152.65 -5.29z"/>
  <path class="fil4" d="M10011.14 11308.75c4.47,7.15 6.86,15.4 6.9,23.82 -0.14,24.92 -20.32,45.1 -45.25,45.24l-67.74 0c-24.97,-0.01 -45.23,-20.27 -45.23,-45.25 0,-0.25 -0.01,-0.51 -0.01,-0.76 0,-6.22 1.36,-12.39 3.98,-18.03l147.35 -5.02z"/>
  <path class="fil4" d="M10220.96 11332.83c-0.12,24.92 -20.3,45.1 -45.23,45.24l-67.75 0c-24.95,-0.02 -45.19,-20.27 -45.19,-45.24 0,-9.27 2.86,-18.33 8.17,-25.93l137.58 -4.76c7.97,8.14 12.44,19.11 12.44,30.51 0,0.06 0,0.12 0,0.18l-0.02 0z"/>
  <path class="fil1" d="M10626.82 11513.27l-1308.36 0 0 -59.53c0.02,-0.02 0.02,-0.06 0.02,-0.07 0,-54.91 43.54,-99.93 98.42,-101.79l1049.33 -36.25c1.72,-0.06 3.54,-0.1 5.29,-0.1 85.85,0 155.5,69.56 155.58,155.4l-0.28 42.34z"/>
  <path class="fil3" d="M17081.82 11330.97c-1.59,93.93 66.15,170.92 150.02,170.92l1584.31 0.01 0 -165.1 -1319.2 0c-56.89,0 -92.34,-68.79 -63.76,-123.83l1194.85 -2430.18c17.21,-35.69 52.97,-58.77 92.59,-59.78l591.35 -0.01 0 -277.81 -745.85 -0.01c-27.28,1.05 -51.8,17.02 -63.76,41.55l-1369.74 2645.81c-31.9,61.27 -49.36,129.36 -50.79,198.44l-0.01 -0.01z"/>
  <path class="fil3" d="M19990.36 10890.18l21.7 36.51 202.94 -135.47 -627.86 -4827.82 -161.66 0c0,0 -6.61,22.23 -17.46,64.56 -108.48,417.25 -641.09,2780.22 582.34,4862.22z"/>
  <path class="fil4" d="M19408.01 6027.97l582.08 4862.22 21.7 36.51 202.94 -135.47 -627.59 -4827.82 -161.66 0c0,0 -6.62,23.02 -17.47,64.56z"/>
  <rect class="fil1" transform="matrix(0.992903 -0.118924 0.118924 0.992903 19422.3 5958.59)" width="383.65" height="5008.26"/>
  <path class="fil5" d="M21703.79 11332.83c0.14,24.92 20.32,45.1 45.25,45.24l67.73 0c24.98,0 45.24,-20.26 45.24,-45.24 0.1,-0.88 0.16,-1.77 0.16,-2.65 0,-0.88 -0.06,-1.77 -0.16,-2.65 -2.8,-22.58 -21.95,-39.59 -44.71,-39.68l-67.73 0c-20.68,0.21 -38.62,14.34 -43.66,34.39 -1.15,3.41 -1.87,6.98 -2.11,10.58l-0.01 0.01z"/>
  <path class="fil5" d="M21500.86 11332.83c0.13,24.92 20.31,45.1 45.24,45.24l67.74 0c24.97,0 45.23,-20.26 45.23,-45.24 -0.01,-4.22 -0.64,-8.41 -1.84,-12.44 -2,-7.34 -5.94,-14.01 -11.39,-19.32 -8.29,-8.46 -19.66,-13.23 -31.52,-13.23 -0.07,0 -0.15,0 -0.22,0l-69.06 0.01c-0.07,-0.01 -0.14,-0.01 -0.21,-0.01 -17.76,0 -33.9,10.33 -41.33,26.46 -1.8,5.04 -2.73,10.37 -2.73,15.72 0,0.93 0.03,1.88 0.09,2.81z"/>
  <path class="fil5" d="M21320.41 11332.83c0.14,24.92 20.32,45.1 45.25,45.24l67.73 0c24.98,0 45.24,-20.26 45.24,-45.24 0,-0.25 0,-0.51 0,-0.76 0,-6.22 -1.36,-12.39 -3.98,-18.03 -7.47,-15.93 -23.4,-26.21 -41,-26.45l-67.73 -0.01c-0.09,0 -0.18,0 -0.27,0 -24.84,0 -44.98,20.14 -44.98,44.98 0,0.09 0,0.18 0,0.26l-0.26 0.01z"/>
  <path class="fil5" d="M21117.21 11332.83c0.14,24.92 20.32,45.1 45.25,45.24l67.73 0c24.96,-0.02 45.2,-20.27 45.2,-45.24 0,-9.27 -2.86,-18.33 -8.17,-25.93l-5.29 -5.82c-8.29,-8.47 -19.66,-13.24 -31.52,-13.24 -0.07,0 -0.15,0 -0.22,0l-67.73 0.01c-12.46,0.15 -24.34,5.41 -32.81,14.55 -7.95,8.13 -12.42,19.05 -12.44,30.42l0 0.01z"/>
  <path class="fil4" d="M21705.12 11321.98c-0.88,3.41 -1.33,6.92 -1.33,10.44 0,0.13 0,0.28 0,0.41 0.14,24.92 20.32,45.1 45.25,45.24l67.73 0c24.98,0 45.24,-20.26 45.24,-45.24 0.1,-0.88 0.16,-1.77 0.16,-2.65 0,-0.88 -0.06,-1.77 -0.16,-2.65l-156.89 -5.55z"/>
  <path class="fil4" d="M21504.56 11314.84c-2.38,5.6 -3.65,11.63 -3.71,17.72 0.14,24.93 20.32,45.11 45.25,45.25l67.74 0c24.97,-0.01 45.23,-20.27 45.23,-45.25 -0.01,-4.21 -0.64,-8.4 -1.84,-12.43l-152.67 -5.29z"/>
  <path class="fil4" d="M21327.03 11308.75c-4.46,7.15 -6.85,15.4 -6.89,23.82 0.14,24.92 20.32,45.1 45.25,45.24l67.74 0c24.97,-0.01 45.23,-20.27 45.23,-45.25 0.01,-0.25 0.01,-0.51 0.01,-0.76 0,-6.22 -1.36,-12.39 -3.98,-18.03l-147.36 -5.02z"/>
  <path class="fil4" d="M21117.21 11332.83c0.14,24.92 20.32,45.1 45.25,45.24l67.73 0c24.96,-0.02 45.2,-20.27 45.2,-45.24 0,-9.27 -2.86,-18.33 -8.17,-25.93l-137.58 -4.76c-7.96,8.14 -12.43,19.11 -12.43,30.51 0,0.06 0,0.12 0,0.18z"/>
  <path class="fil1" d="M20711.34 11513.27l1308.36 0 0 -59.53c-0.01,-0.02 -0.01,-0.06 -0.01,-0.07 0,-54.91 -43.54,-99.93 -98.42,-101.79l-1049.33 -36.25c-1.72,-0.06 -3.54,-0.1 -5.29,-0.1 -85.85,0 -155.5,69.56 -155.58,155.4l0.27 42.34z"/>
  <path class="fil6" d="M26187.65 12230.55c610.39,-1035.3 389.2,-3123.65 413.81,-3163.6 21.96,-35.19 -62.18,-1018.64 -623.09,-1258.88 -101.34,-200.82 -201.08,-427.04 -201.08,-427.04 -9.83,9.2 -20.68,17.31 -32.29,24.07 -4.41,-11.99 -8.73,-24.16 -12.96,-36.51 -7.14,-20.9 -13.76,-42.33 -20.37,-63.76 15.65,4.98 31.7,9.15 47.86,12.21 15.47,3.75 31.4,5.67 47.33,5.67 27.79,0 55.34,-5.85 80.74,-17.07 13.71,-7.36 26.16,-16.95 36.78,-28.32 44.19,-29.37 68.53,-82.29 89.16,-132.29l163.25 -391.05c73.55,-176.48 147.64,-354.01 186.8,-541.07 20.84,-101.43 31.63,-205.21 31.63,-308.81 0,-182.27 -32.92,-363.62 -96.72,-534.17 -38.63,-102.66 -92.08,-205.32 -182.83,-266.7 -181.77,-123.3 -434.71,-38.1 -642.41,-110.33 -68.26,-23.81 -129.91,-64.03 -198.17,-88.37 -147.37,-52.92 -313.8,-24.61 -455.61,41.28 -141.81,65.89 -256.65,170.66 -380.74,264.58 -61.12,46.83 -158.75,95.25 -230.72,158.75 -69.85,54.5 -123.56,120.39 -113.24,207.17 11.64,99.22 116.15,158.75 213.52,182.03 16.14,3.7 32.81,6.61 49.21,9.53 -175.77,178.18 -274.61,418.78 -274.61,669.14 0,421.54 277.34,793.06 681.32,913.07 49.38,92.96 92.98,190.25 128.68,289.16 4.68,13.59 9.31,27.27 13.9,41.02 -160.34,45.51 -285.75,83.34 -310.89,104.25 -75.94,62.97 83.08,614.36 83.08,614.36 -40.48,51.33 -81.76,109.8 -123.56,172.51 -316.26,480.88 -518.29,1030.66 -586.39,1602.7 -26.46,209.29 -60.85,423.33 -104.51,626.8l-1896.18 -380.34 -3.97 46.83 -45.24 -11.11 0 0 -142.35 -35.19 -5.56 32.01 -21.7 -10.32c-352.69,-165.36 -946.93,-376.5 -1349.37,-158.75 -424.66,228.6 491.86,532.34 1080.02,694 -195,9.53 -381.53,56.36 -529.17,165.89 -426.51,319.62 779.72,486.04 1349.37,545.04l23.02 2.38 0 12.17 197.38 18.26 46.3 4.23 4.5 70.38c0,0 282.58,46.3 660.14,102.39 -431.01,107.69 -963.6,182.3 -1333.49,225.95 -392.11,46.04 -726.01,319.09 -831.31,699.82 -18.64,59.88 -28.21,122.49 -28.21,185.24 0,50.98 6.31,101.96 18.69,151.34 110.07,384.44 -24.34,3212.55 -54.77,3821.61l-697.18 401.37c0,0 -1084.78,132.29 -362.21,386.56 64.89,22.19 131.83,39.97 199.31,52.85 -95.25,61.38 -87.05,141.55 193.68,239.98 723.1,253.47 2403.98,-11.11 2403.98,-11.11 0,0 -36.78,-297.92 -96.57,-545.57l18.52 1.59c0,0 -173.57,-645.85 89.69,-971.54 263.26,-325.7 -44.19,-2804.56 -44.19,-2804.56 0,0 460.9,-190.76 1838.58,-203.2 1111.24,285.22 1652.84,-735.8 1645.17,-1263.64 -2.46,-11.85 -2.99,-24.02 -3.78,-34.87z"/>
  <path class="fil7" d="M22080.82 10626.12l-117.74 476.25c0,0 -105.83,-23.81 -264.58,-64.56 -537.63,-139.17 -1671.63,-473.34 -1217.07,-718.6 391.85,-211.67 968.89,-5.82 1311.53,154.78 125.41,59 219.6,111.92 261.67,136.79 17.72,10.06 26.19,15.35 26.19,15.35z"/>
  <path class="fil4" d="M22047.74 10760.53l-84.67 343.96c0,0 -105.83,-23.81 -264.58,-64.56l95.51 -563.83c125.41,59 219.6,111.92 261.67,136.79l-7.93 147.64z"/>
  <path class="fil8" d="M22048.01 11137.04l-328.62 -81.23 102.13 -602.19 262.74 64.82 -36.25 618.6z"/>
  <path class="fil4" d="M22048.01 11137.04l-141.82 -34.93 53.45 -614.36 124.62 30.69 -36.25 618.6z"/>
  <path class="fil9" d="M25218.75 8642.83c0,0 -631.03,-364.6 -911.48,681.3 -280.46,1045.89 -306.92,1527.69 -306.92,1527.69l-1992.83 -398.46 -63.24 727.86c0,0 2130.67,687.92 2398.69,637.91 268.02,-50.01 1137.7,-1508.12 1137.7,-1508.12 0,0 790.58,-1130.02 -261.93,-1668.18z"/>
  <g id="_1711171633872">
   <path class="fil10" d="M22080.82 10626.12l-117.74 476.25c0,0 -105.83,-23.81 -264.58,-64.56 -537.63,-139.17 -1671.63,-473.34 -1217.07,-718.6 391.85,-211.67 968.89,-5.82 1311.53,154.78 125.41,59 219.6,111.92 261.67,136.79 17.72,10.06 26.19,15.35 26.19,15.35z"/>
   <path class="fil10" d="M22047.74 10760.53l-84.67 343.96c0,0 -105.83,-23.81 -264.58,-64.56l95.51 -563.83c125.41,59 219.6,111.92 261.67,136.79l-7.93 147.64z"/>
   <path class="fil4" d="M22048.01 11137.04l-328.62 -81.23 102.13 -602.19 262.74 64.82 -36.25 618.6z"/>
   <path class="fil10" d="M22048.01 11137.04l-141.82 -34.93 53.45 -614.36 124.62 30.69 -36.25 618.6z"/>
   <path class="fil4" d="M25218.75 8669.29c0,0 -631.03,-364.6 -911.48,681.3 -280.46,1045.89 -306.92,1527.69 -306.92,1527.69l-1992.83 -398.46 -63.24 727.86c0,0 2130.67,687.92 2398.69,637.91 268.02,-50.01 1137.7,-1508.12 1137.7,-1508.12 0,0 790.58,-1130.02 -261.93,-1668.18z"/>
  </g>
  <path class="fil11" d="M21205.05 16746.96l-813.58 468.57c0,0 -1054.09,129.12 -351.9,375.18 702.2,246.06 2334.66,-10.85 2334.66,-10.85 0,0 -90.75,-733.42 -217.22,-835.81 -126.47,-102.39 -951.96,2.92 -951.96,2.92z"/>
  <path class="fil12" d="M24376.07 11489.72c0,0 -404.81,211.67 -1123.94,394.49 -421.48,105.83 -949.05,180.98 -1313.65,223.84 -381.59,41.52 -700.73,309.53 -807.48,678.18 -18.23,58.29 -27.6,119.23 -27.6,180.39 0,49.73 6.2,99.45 18.3,147.63 119.86,418.84 -59,3823.46 -59,3823.46l1235.59 114.3c0,0 -168.54,-627.33 87.31,-943.49 255.85,-316.17 -42.86,-2722.81 -42.86,-2722.81 0,0 447.68,-185.21 1785.4,-197.38 1239.3,317.5 1749.94,-1039.01 1558.65,-1419.22 -191.29,-380.21 -1310.71,-279.38 -1310.71,-279.38z"/>
  <g id="_1711171651776">
   <path class="fil4" d="M21205.05 16746.96l-813.58 468.57c0,0 -1054.09,129.12 -351.9,375.18 702.2,246.06 2334.66,-10.85 2334.66,-10.85 0,0 -90.75,-733.42 -217.22,-835.81 -126.47,-102.39 -951.96,2.92 -951.96,2.92z"/>
   <path class="fil4" d="M24376.07 11489.72c0,0 -404.81,211.67 -1123.94,394.49 -421.48,105.83 -949.05,180.98 -1313.65,223.84 -381.59,41.52 -700.73,309.53 -807.48,678.18 -18.23,58.29 -27.6,119.23 -27.6,180.39 0,49.73 6.2,99.45 18.3,147.63 119.86,418.84 -59,3823.46 -59,3823.46l1235.59 114.3c0,0 -168.54,-627.33 87.31,-943.49 255.85,-316.17 -42.86,-2722.81 -42.86,-2722.81 0,0 447.68,-185.21 1785.4,-197.38 1239.3,317.5 1749.94,-1039.01 1558.65,-1419.22 -191.29,-380.21 -1310.71,-279.38 -1310.71,-279.38z"/>
  </g>
  <path class="fil11" d="M21586.58 17031.38l-813.58 468.58c0,0 -1053.56,128.06 -351.9,375.18 701.67,247.12 2334.66,-10.85 2334.66,-10.85 0,0 -90.75,-733.42 -217.22,-835.81 -126.47,-102.39 -951.96,2.91 -951.96,2.91z"/>
  <path class="fil12" d="M24508.36 13472.76c-1337.72,12.17 -1785.4,197.38 -1785.4,197.38 0,0 298.71,2407.69 42.86,2722.81 -255.85,315.12 -87.31,943.49 -87.31,943.49l-1235.59 -114.3c0,0 2.12,-40.22 5.56,-112.18 29.63,-591.61 160.07,-3337.96 52.92,-3711.28 -12.06,-47.98 -18.18,-97.56 -18.18,-147.06 0,-61.01 9.3,-121.81 27.45,-180.02 106.29,-369.12 425.29,-637.79 807.22,-679.67 364.33,-42.6 891.9,-116.68 1313.38,-223.84l20.64 -5.29c706.43,-181.5 1103.3,-389.2 1103.3,-389.2 0,0 1119.44,-100.54 1310.74,279.66 25.82,57.75 39.22,120.41 39.22,183.72 0,2.69 -0.05,5.49 -0.05,8.13 9.5,513.01 -517.02,1504.66 -1596.77,1227.64z"/>
  <path class="fil7" d="M22644.91 11219.59l-45.24 489.48c0,0 -108.74,-7.67 -270.4,-24.61 -552.19,-57.41 -1723.49,-218.81 -1309.41,-529.17 356.13,-266.7 957.25,-150.28 1320,-42.33 132.29,39.69 233.89,78.05 279.14,96.31 16.65,6.35 25.91,10.32 25.91,10.32z"/>
  <path class="fil7" d="M25931.28 8019.47c0,0 -165.63,129.65 -368.04,271.99 -221.99,50.27 -479.69,91.81 -665.43,118.8 66.41,-211.67 26.46,-449.79 -48.42,-658.55 -81.25,-217.79 -193.53,-423.88 -332.13,-610.6l1119.71 -349.51c-87.84,222.51 -48.15,476.25 26.46,696.91 65.59,187.51 156.2,366.49 267.86,530.89l-0.02 0.07z"/>
  <path class="fil4" d="M22632.21 11357.43l-32.54 351.63c0,0 -108.74,-7.67 -270.4,-24.61l10.58 -571.76c132.29,39.69 233.89,78.05 279.14,96.31l13.22 148.43z"/>
  <path class="fil8" d="M22688.56 11729.7l-337.08 -31.22 11.12 -610.66 269.61 24.87 56.35 617.01z"/>
  <path class="fil4" d="M25931.28 8019.47c0,0 -165.63,129.65 -368.04,271.99 -221.99,50.27 -479.69,91.81 -665.43,118.8 66.41,-211.67 26.46,-449.79 -48.42,-658.55 273.58,-79.38 664.9,-182.03 814.38,-264.58 65.35,188.01 155.97,367.56 267.62,532.23l-0.12 0.11z"/>
  <path class="fil8" d="M25707.44 7500.37c0,0 187.33,425.19 305.33,617.27 118,192.08 -1371.06,370.42 -1371.06,370.42 0,0 -154.52,-535.25 -80.7,-596.64 73.82,-61.39 1021.81,-266.7 1146.43,-391.05z"/>
  <path class="fil4" d="M26107.22 12245.36c-62.4,110.44 -140.9,211.67 -231.83,299.99 -657.75,624.95 -1735.92,-26.46 -2222.48,-382.59 706.43,-181.5 1103.3,-389.2 1103.3,-389.2 0,0 1119.44,-100.54 1310.74,279.66 26.53,58.42 40.31,121.9 40.31,186.04 0,1.98 -0.05,4.17 -0.05,6.1l0.01 0z"/>
  <path class="fil9" d="M25879.68 12500.69c-747.7,710.13 -2037.28,-230.19 -2384.93,-507.21 -56.36,-44.98 -87.84,-72.76 -87.84,-72.76 137.32,-128.59 257.97,-401.11 353.48,-734.47 87.75,-317.86 153.85,-645.21 192.41,-973.34 66.04,-555.46 261.81,-1088.96 569.13,-1556.34 40.48,-60.85 79.38,-117.74 119.86,-167.48 282.31,-359.04 756.7,-587.11 756.7,-587.11 1001.17,-292.63 1135.85,1192.47 1109.12,1235.33 -26.73,42.86 241.23,2537.61 -627.93,3363.38z"/>
  <path class="fil4" d="M25976.52 10470.56c0,0 -643.73,1571.62 -901.16,1661.31 -147.37,51.06 -934.5,-45.77 -1580.61,-138.11 -56.36,-44.98 -87.84,-72.76 -87.84,-72.76 137.32,-128.59 257.97,-401.11 353.48,-734.47l832.1 39.69c0,0 -46.3,-479.95 75.94,-1556.27 122.24,-1076.32 799.83,-809.62 799.83,-809.62 1121.03,375.44 508.26,1610.24 508.26,1610.24z"/>
  <path class="fil4" d="M22688.56 11729.7l-145.52 -13.49 -38.63 -615.16 127.8 11.64 56.35 617.01z"/>
  <path class="fil9" d="M25452.12 8790.99c0,0 -677.6,-266.44 -799.83,809.62 -122.24,1076.06 -75.94,1556.27 -75.94,1556.27l-2030.14 -97.1 45.77 729.18c0,0 2209.52,362.74 2466.96,273.31 257.44,-89.43 901.16,-1661.31 901.16,-1661.31 0,0 611.99,-1234.8 -507.99,-1609.98z"/>
  <path class="fil4" d="M25497.62 7197.68c-29.63,-160.87 138.38,-158.75 198.7,-310.09l-1119.71 349.51c77.54,104.08 147.54,215.1 207.57,330.05 57.83,16.99 117.71,28.78 177.93,34.34 266.97,25.35 350.32,-237.38 535.52,-403.81z"/>
  <circle class="fil7" transform="matrix(0.092023 -0.995757 0.995757 0.092023 24987.1 6583.86)" r="924.97"/>
  <path class="fil4" d="M24074.44 5748.31c11.38,96.31 112.98,155.05 207.43,176.74 94.45,21.69 196.85,22.75 279.66,73.29 132.29,81.49 168.01,262.47 151.34,418.04 -9.26,87.84 -22.49,195.53 49.48,246.59 22.58,13.82 47.85,22.89 74.08,26.47 45.34,9.15 91.65,13.82 137.88,13.82 30.11,0 60.31,-1.95 90.17,-5.85 44.45,-5.82 90.22,-15.88 132.29,-3.44 69.32,20.11 110.33,93.13 123.83,163.78 13.5,70.65 6.09,144.2 16.93,215.37 30.91,182.37 171.15,326.92 352.44,363.5 15,3.65 30.41,5.5 45.85,5.5 27.04,0 53.8,-5.66 78.51,-16.6 50.27,-26.46 75.94,-82.81 97.63,-135.47l158.75 -379.94c71.44,-171.19 143.4,-343.96 181.5,-525.46 20.23,-98.45 30.71,-199.24 30.71,-299.85 0,-177.02 -31.97,-353.13 -93.93,-518.77 -37.57,-99.48 -89.43,-199.23 -177.54,-259.03 -176.48,-119.86 -423.33,-37.04 -623.89,-105.83 -66.41,-23.02 -126.21,-62.18 -192.35,-85.73 -143.14,-51.06 -304.8,-24.08 -442.65,40.22 -137.85,64.3 -249.24,165.63 -370.42,257.97 -105.03,81.73 -327.54,168.25 -307.7,334.68z"/>
  <path class="fil13" d="M24098.78 5727.93c11.38,96.31 112.98,155.05 207.43,176.74 94.45,21.69 196.85,22.75 279.66,73.29 132.29,81.49 168.01,262.47 151.34,418.04 -9.26,87.84 -22.49,195.53 49.48,246.59 22.58,13.83 47.85,22.9 74.08,26.48 45.34,9.15 91.65,13.82 137.88,13.82 30.11,0 60.31,-1.95 90.17,-5.85 44.45,-5.82 90.22,-15.88 132.29,-3.44 69.32,20.11 110.33,93.13 123.83,163.78 13.5,70.65 6.09,144.2 16.93,215.37 30.91,182.36 171.15,326.91 352.44,363.49 15,3.65 30.41,5.5 45.85,5.5 27.04,0 53.8,-5.66 78.51,-16.6 50.27,-26.46 75.94,-82.81 97.63,-135.47l158.75 -379.94c71.44,-171.19 143.4,-343.96 181.5,-525.46 20.23,-98.44 30.71,-199.23 30.71,-299.84 0,-177.02 -31.97,-353.13 -93.93,-518.77 -37.57,-99.48 -89.43,-199.23 -177.54,-259.03 -176.48,-119.86 -423.33,-37.04 -623.89,-105.83 -66.41,-23.02 -126.21,-62.18 -192.35,-85.73 -143.14,-51.06 -304.8,-24.08 -442.65,40.22 -137.85,64.3 -249.24,165.63 -370.42,257.97 -104.76,81.73 -327.28,168.25 -307.7,334.67z"/>
  <path class="fil4" d="M24865.01 9382.06c0,0 -353.22,1372.12 -704.85,1499.12 -351.63,127 -196.32,162.98 -196.32,162.98m901.16 -1662.1l0 0 0 0z"/>
  <rect class="fil1" x="24497.77" y="14408.58" width="383.91" height="2523.31"/>
  <path class="fil4" d="M24497.78 14595.65l383.91 0 0 -187.06 -383.91 0 0 187.06z"/>
  <path class="fil1" d="M23729.69 14395.36l0 52.92c-0.01,68.5 55.56,124.07 124.08,124.07l1671.64 0.02c68.51,-0.02 124.08,-55.59 124.08,-124.11l0 -52.92c0,-68.51 -55.57,-124.08 -124.09,-124.08l-1671.62 0.01c-68.53,-0.01 -124.1,55.56 -124.1,124.08l0.01 0.01z"/>
  <path class="fil4" d="M23758.26 14316.51l1862.93 0c-23.46,-28.64 -58.56,-45.25 -95.58,-45.25 -0.06,0 -0.15,0 -0.21,0l-1671.62 0.01c-37.01,0.01 -72.07,16.61 -95.51,45.23l-0.01 0.01z"/>
  <path class="fil1" d="M23258.48 16794.58l2863.03 0c80.36,-0.02 145.52,65.15 145.52,145.5l0 10.6c0,80.34 -65.16,145.5 -145.52,145.5l-2863.03 0.03c-80.35,-0.03 -145.52,-65.19 -145.52,-145.55l0 -10.56c0,-80.37 65.17,-145.54 145.52,-145.54z"/>
  <circle class="fil3" cx="26088.7" cy="17288.29" r="192.09"/>
  <circle class="fil3" cx="23291.01" cy="17288.29" r="192.09"/>
  <circle class="fil3" cx="24689.86" cy="17288.29" r="192.09"/>
  <path class="fil1" d="M24506.77 11309.28l2567.23 0c124.19,-0.01 224.9,100.7 224.9,224.87l0 16.43c0,124.17 -100.71,224.88 -224.9,224.88l-2567.23 0.01c-124.19,-0.01 -224.9,-100.72 -224.9,-224.91l0 -16.39c0,-124.19 100.71,-224.9 224.9,-224.9z"/>
  <path class="fil4" d="M24881.67 16794.58c0,0 -150.81,148.96 -383.91,0m383.91 0l0 0 0 0z"/>
  <path class="fil4" d="M27298.9 11547.14l0 36.78c-0.01,105.91 -85.91,191.81 -191.83,191.81l-2633.37 0.01c-105.93,-0.01 -191.83,-85.91 -191.83,-191.83l0 -36.78 3017.03 0.01z"/>
  <rect class="fil1" x="21760.41" y="11975.76" width="518.85" height="6610.83"/>
  <path class="fil4" d="M21760.42 12404.38l518.85 0 0 -428.63 -518.85 0 0 428.63z"/>
  <rect class="fil1" x="6163.33" y="14589.03" width="383.91" height="2523.31"/>
  <path class="fil4" d="M6163.34 14776.09l383.91 0 0 -187.06 -383.91 0 0 187.06z"/>
  <path class="fil1" d="M7315.06 14576.07l0 52.92c0.02,68.51 -55.55,124.08 -124.07,124.08l-1671.65 0.01c-68.5,-0.01 -124.07,-55.58 -124.07,-124.1l0 -52.92c0.57,-68.11 55.97,-123.03 124.08,-123.03 0,0 0,0 0,0l1671.62 0.01c68.54,-0.01 124.11,55.56 124.11,124.08l-0.02 -1.05z"/>
  <path class="fil4" d="M7286.75 14496.96l-1863.19 0c23.48,-27.84 58.08,-43.94 94.5,-43.94 0.42,0 0.87,0 1.3,0l1671.61 0.02c0.44,-0.02 0.9,-0.02 1.32,-0.02 36.41,0 71.02,16.1 94.48,43.93l-0.02 0.01z"/>
  <path class="fil1" d="M4923.77 16975.03l2863.04 0c80.36,-0.02 145.53,65.15 145.53,145.5l-0.01 10.6c0.01,80.34 -65.16,145.5 -145.51,145.5l-2863.05 0.02c-80.35,-0.02 -145.51,-65.18 -145.51,-145.54l-0.01 -10.56c0.01,-80.37 65.17,-145.54 145.53,-145.54z"/>
  <circle class="fil3" cx="4956.57" cy="17468.74" r="192.09"/>
  <circle class="fil3" cx="7754" cy="17468.74" r="192.09"/>
  <circle class="fil3" cx="6355.15" cy="17468.74" r="192.09"/>
  <path class="fil4" d="M6163.34 16975.03c0,0 150.81,148.96 383.91,0m-383.91 0l0 0 0 0z"/>
  <path class="fil14 str0" d="M15957.35 9378.89c0,0 -430.74,-782.89 -273.31,-1463.4 24.36,-102.49 36.76,-207.95 36.76,-313.4 0,-185.62 -38.35,-369.58 -112.23,-539.66 -55.86,-126.68 -123.69,-249 -201.81,-363.53"/>
  <path class="fil9" d="M15502.27 6269.27c22.49,102.66 -97.9,441.06 -97.9,441.06 0,0 -251.09,-256.65 -273.84,-359.3 -5.42,-17.87 -8.21,-36.54 -8.21,-55.24 0,-105.05 85.19,-190.24 190.24,-190.24 94.81,0 175.17,69.84 188.38,163.72l1.33 0z"/>
  <path class="fil9" d="M15934.33 6770.12c-36.78,98.43 -321.73,317.5 -321.73,317.5 0,0 -71.44,-351.9 -34.4,-449.79 25.47,-78.31 98.51,-131.36 180.89,-131.36 105.05,0 190.24,85.19 190.24,190.24 0,25.2 -5.04,50.19 -14.75,73.42l-0.25 -0.01z"/>
  <path class="fil9" d="M16134.36 7744.31c-81.49,66.41 -437.89,111.13 -437.89,111.13 0,0 116.15,-339.73 197.64,-406.14 34.1,-28.25 77.09,-43.76 121.4,-43.76 105.05,0 190.24,85.19 190.24,190.24 0,57.78 -26.29,112.46 -71.4,148.55l0.01 -0.02z"/>
  <path class="fil9" d="M16119.8 8515.3c-69.06,79.38 -412.75,183.62 -412.75,183.62 0,0 56.89,-354.54 125.94,-433.65 36.12,-44.03 90.12,-69.6 147.09,-69.6 105.05,0 190.24,85.19 190.24,190.24 0,47.98 -18.16,94.23 -50.79,129.39l0.27 0z"/>
  <path class="fil9" d="M15226.83 7192.66c89.43,55.3 448.47,52.92 448.47,52.92 0,0 -158.75,-322 -248.18,-377.3 -31.03,-20.39 -67.38,-31.28 -104.52,-31.28 -105.05,0 -190.24,85.19 -190.24,190.24 0,67.68 36,130.29 94.46,164.37l0.01 1.05z"/>
  <path class="fil9" d="M15221.54 8094.88c101.86,26.46 443.97,-82.55 443.97,-82.55 0,0 -247.91,-259.82 -349.78,-285.75 -12.98,-2.74 -26.28,-4.16 -39.57,-4.16 -105.05,0 -190.24,85.19 -190.24,190.24 0,84.01 55.16,158.12 135.61,182.23l0.01 -0.01z"/>
  <path class="fil9" d="M15336.11 8972.23c95.78,42.86 451.64,-6.35 451.64,-6.35 0,0 -200.55,-297.92 -296.33,-340.78 -24.42,-10.92 -50.9,-16.56 -77.66,-16.56 -105.07,0 -190.27,85.2 -190.27,190.27 0,75.03 44.14,143.09 112.62,173.71l0 -0.29z"/>
  <path class="fil9" d="M15502.27 6269.27c22.49,102.66 -97.9,441.06 -97.9,441.06 0,0 -251.09,-256.65 -273.84,-359.3 -5.42,-17.87 -8.21,-36.54 -8.21,-55.24 0,-105.05 85.19,-190.24 190.24,-190.24 94.81,0 175.17,69.84 188.38,163.72l1.33 0z"/>
  <path class="fil9" d="M15934.33 6770.12c-36.78,98.43 -321.73,317.5 -321.73,317.5 0,0 -71.44,-351.9 -34.4,-449.79 25.47,-78.31 98.51,-131.36 180.89,-131.36 105.05,0 190.24,85.19 190.24,190.24 0,25.2 -5.04,50.19 -14.75,73.42l-0.25 -0.01z"/>
  <path class="fil9" d="M16134.36 7744.31c-81.49,66.41 -437.89,111.13 -437.89,111.13 0,0 116.15,-339.73 197.64,-406.14 34.1,-28.25 77.09,-43.76 121.4,-43.76 105.05,0 190.24,85.19 190.24,190.24 0,57.78 -26.29,112.46 -71.4,148.55l0.01 -0.02z"/>
  <path class="fil9" d="M16119.8 8515.3c-69.06,79.38 -412.75,183.62 -412.75,183.62 0,0 56.89,-354.54 125.94,-433.65 36.12,-44.03 90.12,-69.6 147.09,-69.6 105.05,0 190.24,85.19 190.24,190.24 0,47.98 -18.16,94.23 -50.79,129.39l0.27 0z"/>
  <path class="fil9" d="M15226.83 7192.66c89.43,55.3 448.47,52.92 448.47,52.92 0,0 -158.75,-322 -248.18,-377.3 -31.03,-20.39 -67.38,-31.28 -104.52,-31.28 -105.05,0 -190.24,85.19 -190.24,190.24 0,67.68 36,130.29 94.46,164.37l0.01 1.05z"/>
  <path class="fil9" d="M15221.54 8094.88c101.86,26.46 443.97,-82.55 443.97,-82.55 0,0 -247.91,-259.82 -349.78,-285.75 -12.98,-2.74 -26.28,-4.16 -39.57,-4.16 -105.05,0 -190.24,85.19 -190.24,190.24 0,84.01 55.16,158.12 135.61,182.23l0.01 -0.01z"/>
  <path class="fil9" d="M15336.11 8972.23c95.78,42.86 451.64,-6.35 451.64,-6.35 0,0 -200.55,-297.92 -296.33,-340.78 -24.42,-10.92 -50.9,-16.56 -77.66,-16.56 -105.07,0 -190.27,85.2 -190.27,190.27 0,75.03 44.14,143.09 112.62,173.71l0 -0.29z"/>
  <path class="fil9" d="M15782.19 11550.31l0 0c0,0 -0.11,0 -0.11,0 -250.42,0 -453.5,-203.07 -453.5,-453.49 0,-9.52 0.33,-19.1 0.89,-28.57l126.74 -2008.18 651.95 0 126.74 2008.18c0.57,9.47 0.9,19.05 0.9,28.57 0,250.42 -203.08,453.49 -453.5,453.49 0,0 -0.11,0 -0.11,0z"/>
  <path class="fil0" d="M2212.07 3212.56l370.42 0 0 -1534.57 -370.42 0 0 1534.57z"/>
  <path class="fil0" d="M2688.32 3212.56l370.42 0 0 -1534.57 -370.42 0 0 1534.57z"/>
  <path class="fil0" d="M3164.57 3212.56l370.42 0 0 -1534.57 -370.42 0 0 1534.57z"/>
  <path class="fil0" d="M3640.81 3212.56l370.42 0 0 -1534.57 -370.42 0 0 1534.57z"/>
  <path class="fil0" d="M4593.31 3212.56l370.42 0 0 -1534.57 -370.42 0 0 1534.57z"/>
  <path class="fil0" d="M5069.55 3212.56l370.42 0 0 -1534.57 -370.42 0 0 1534.57z"/>
  <path class="fil0" d="M2212.07 2048.41l370.42 0 0 -79.38 -370.42 0 0 79.38z"/>
  <path class="fil0" d="M2212.07 3000.9l370.42 0 0 -79.38 -370.42 0 0 79.38z"/>
  <path class="fil0" d="M2688.32 2048.41l370.42 0 0 -79.38 -370.42 0 0 79.38z"/>
  <path class="fil0" d="M2688.32 3000.9l370.42 0 0 -79.38 -370.42 0 0 79.38z"/>
  <path class="fil0" d="M3164.57 2048.41l370.42 0 0 -79.38 -370.42 0 0 79.38z"/>
  <path class="fil0" d="M3164.57 3000.9l370.42 0 0 -79.38 -370.42 0 0 79.38z"/>
  <path class="fil0" d="M3640.81 2048.41l370.42 0 0 -79.38 -370.42 0 0 79.38z"/>
  <path class="fil0" d="M3640.81 3000.9l370.42 0 0 -79.38 -370.42 0 0 79.38z"/>
  <path class="fil0" d="M4117.06 2048.41l370.42 0 0 -79.38 -370.42 0 0 79.38z"/>
  <path class="fil0" d="M4117.06 3000.9l370.42 0 0 -79.38 -370.42 0 0 79.38z"/>
  <path class="fil0" d="M4593.31 2048.41l370.42 0 0 -79.38 -370.42 0 0 79.38z"/>
  <path class="fil0" d="M4593.31 3000.9l370.42 0 0 -79.38 -370.42 0 0 79.38z"/>
  <path class="fil0" d="M5069.55 2048.41l370.42 0 0 -79.38 -370.42 0 0 79.38z"/>
  <path class="fil0" d="M5069.55 3000.9l370.42 0 0 -79.38 -370.42 0 0 79.38z"/>
  <path class="fil0" d="M4117.06 3212.56l370.42 0 0 -1534.57 -370.42 0 0 1534.57z"/>
  <path class="fil0" d="M6096.82 3219.15l336.15 -155.61 -644.65 -1392.59 -336.15 155.61 644.65 1392.59z"/>
  <path class="fil0" d="M5607.87 2162.95l336.15 -155.61 -33.34 -72.03 -336.15 155.6 33.34 72.04z"/>
  <path class="fil0" d="M6007.8 3027.23l336.15 -155.61 -33.35 -72.03 -336.15 155.6 33.35 72.04z"/>
  <path class="fil15" d="M10296.1 17501.28l-672.31 -428.89c-3.44,-604.04 -12.96,-3408.34 112.71,-3783.51 17.02,-57.15 25.75,-116.58 25.75,-176.24 0,-53.11 -6.92,-106.07 -20.46,-157.38 -87.31,-381.26 -405.87,-665.96 -791.89,-728.65 -364.07,-59.27 -887.93,-156.37 -1309.68,-281.78 375.97,-38.89 657.75,-72.5 657.75,-72.5l7.41 -69.59 242.09 -11.64 0.02 -10.33 23.02 -1.32c565.41,-33.6 1766.08,-145.52 1358.1,-480.48 -139.96,-114.83 -322.53,-169.07 -515.14,-187.33 588.96,-134.41 1509.44,-394.76 1099.07,-639.5 -390,-232.3 -987.15,-49.74 -1343.54,98.69l-21.96 9.26 -3.97 -32.01 -142.35 28.58 -0.01 -0.01 -45.24 9 -2.12 -46.57 -1997.33 308.5c-14.88,-227.96 -43.18,-457.67 -81.47,-683.22 44.71,-297.92 252.68,-732.36 179.39,-965.45 -85.2,-270.67 -434.98,-359.3 -582.08,-603.78 -38.63,-63.76 -76.99,-123.56 -114.56,-175.95 -82.19,-111.24 -176.93,-213.67 -281.85,-304.12 6.38,-157.2 41.54,-311.99 103.71,-456.41 39.77,-96.33 86.74,-190.54 139.65,-280.43 420.17,-104.29 715.24,-481.47 715.24,-914.3 0,-57.15 -5.29,-114.42 -15.52,-170.54 126.47,54.24 280.19,59.8 359.3,-46.04l-37.57 -14.55c3.7,-3.97 7.41,-7.94 10.58,-12.44 -76.99,-29.37 -158.75,-62.71 -219.08,-116.15 -15.33,-17.17 -28.27,-36.34 -38.42,-56.93 -36.51,-74.08 -32.28,-162.98 -67.2,-238.13 -16.42,-34.16 -39.82,-64.65 -68.54,-89.4 -61.2,-62.6 -138.84,-107.07 -223.85,-128.09 -95.51,-27.78 -196.06,-41.8 -287.6,-79.38 -184.53,-214.35 -453.76,-337.81 -736.75,-337.81 -101.14,0 -201.69,15.79 -297.96,46.77l-33.07 11.38c5.89,-28.77 8.95,-58.22 8.95,-87.62 0,-238.29 -193.25,-431.54 -431.54,-431.54 -198.67,0 -371.8,135.77 -419.11,328.7 8.38,-96.43 49.11,-187.3 115.38,-257.72 -6.88,5.82 -14.02,11.38 -20.64,17.46 -86.73,81.52 -136.02,195.49 -136.02,314.58 0,109.91 41.96,215.77 117.24,295.79l7.67 7.41c30.5,37.36 67.19,69.44 108.22,94.75 -154.17,-54.5 -264.51,-191.51 -284.7,-353.77 0,9 0,17.99 0,26.46 13.24,228.33 202.33,406.78 431.07,406.78 9.33,0 18.71,-0.32 27.99,-0.9l11.91 -1.32 -6.35 8.73c-109.51,160.96 -168.09,351.4 -168.09,546.11 0,242.97 91.31,477.4 255.42,656.46 17.48,40.13 40.92,77.64 69.31,111.08 9.92,11.37 20.69,22.23 31.99,32.3 72.45,76.4 171.6,122.09 276.76,127.5 17.63,20.99 36.41,41.19 56.34,60.59 -17.23,74.01 -40.31,147.27 -68.18,218.02 -56.27,141.09 -126.8,276.79 -209.75,404.03 -571.5,162.45 -621.77,1132.94 -601.13,1169.71 24.61,43.92 -85.2,1567.91 338.14,3408.87 -17.46,526.26 289.45,1396.46 1379,1167.07 1362.7,72.75 1809.58,281.5 1809.58,281.5 0,0 -129.38,2369.85 55.3,2714.87 115.62,216.16 33.6,533.66 -52.92,757.76 -32,55.38 -57.72,114.34 -76.22,175.64 -26.46,55.83 -45.77,89.69 -45.77,89.69l18.52 0c-69.85,242.62 -119.33,535.52 -119.33,535.52 0,0 1651.78,335.23 2378.32,115.89 282.05,-85.2 293.69,-164.04 202.14,-229.13 67.31,-9.83 134.32,-24.56 199.54,-43.61 727.05,-219.35 -341.33,-399 -341.33,-399z"/>
  <path class="fil16" d="M6702.02 6251.01c0.02,525.97 -426.52,952.5 -952.47,952.5 -525.96,0 -952.49,-426.54 -952.49,-952.49 0,-525.96 426.54,-952.49 952.49,-952.49 525.96,0 952.49,426.54 952.49,952.49l-0.02 -0.01z"/>
  <path class="fil7" d="M8847.52 10725.87l96.57 482.07c0,0 107.42,-19.31 266.44,-52.92 543.19,-115.09 1690.94,-399.26 1246.44,-664.37 -382.32,-227.81 -967.84,-48.68 -1317.09,96.84 -128.06,52.92 -224.37,102.13 -267.49,125.15 -16.14,8.21 -24.87,13.23 -24.87,13.23z"/>
  <path class="fil4" d="M8874.77 10861.87l69.32 346.08c0,0 107.42,-19.31 266.44,-52.92l-70.64 -567.53c-128.06,52.92 -224.37,102.13 -267.49,125.15l2.37 149.22z"/>
  <path class="fil8" d="M8858.1 11237.84l331.79 -66.41 -75.15 -606.16 -265.64 53.18 9 619.39z"/>
  <path class="fil4" d="M8858.1 11237.84l143.14 -28.84 -26.2 -615.68 -125.94 25.13 9 619.39z"/>
  <path class="fil9" d="M5800.06 8605.79c0,0 645.85,-336.55 880.52,720.98 234.68,1057.53 238.13,1539.6 238.13,1539.6l2008.71 -310.36 31.22 729.98c0,0 -2158.98,593.46 -2424.36,531.55 -265.38,-61.91 -1071.02,-1557.06 -1071.02,-1557.06 0,0 -738.18,-1162.84 336.81,-1654.7z"/>
  <g id="_1711172726560">
   <path class="fil4" d="M8847.52 10725.87l96.57 482.07c0,0 107.42,-19.31 266.44,-52.92 543.19,-115.09 1690.94,-399.26 1246.44,-664.37 -382.32,-227.81 -967.84,-48.68 -1317.09,96.84 -128.06,52.92 -224.37,102.13 -267.49,125.15 -16.14,8.21 -24.87,13.23 -24.87,13.23z"/>
   <path class="fil10" d="M8874.77 10861.87l69.32 346.08c0,0 107.42,-19.31 266.44,-52.92l-70.64 -567.53c-128.06,52.92 -224.37,102.13 -267.49,125.15l2.37 149.22z"/>
   <path class="fil4" d="M8858.1 11237.84l331.79 -66.41 -75.15 -606.16 -265.64 53.18 9 619.39z"/>
   <path class="fil10" d="M8858.1 11237.84l143.14 -28.84 -26.2 -615.68 -125.94 25.13 9 619.39z"/>
   <path class="fil4" d="M5852.98 8658.7c0,0 645.85,-336.55 880.52,720.98 234.68,1057.53 238.13,1539.6 238.13,1539.6l2008.71 -310.36 31.22 729.98c0,0 -2158.98,593.46 -2424.36,531.55 -265.38,-61.91 -1071.02,-1557.06 -1071.02,-1557.06 0,0 -738.18,-1162.84 336.81,-1654.7z"/>
  </g>
  <path class="fil17" d="M9453.67 16879.51l792.15 502.71c0,0 1047.48,175.42 334.96,390.53 -712.52,215.11 -2331.75,-113.77 -2331.75,-113.77 0,0 123.03,-728.65 254,-825.23 130.97,-96.58 950.64,45.77 950.64,45.77z"/>
  <path class="fil18" d="M6516.81 11487.08c0,0 395.02,229.39 1105.42,443.71 416.45,125.68 940.32,222.78 1302.27,281.78 379.7,58.53 686.57,341.01 776.56,714.39 13.31,50.36 20.1,102.37 20.1,154.53 0,58.36 -8.56,116.57 -25.16,172.49 -138.1,413.26 -110.05,3822.38 -110.05,3822.38l-1239.3 59.53c0,0 196.06,-619.39 -45.51,-946.4 -241.57,-327.02 162.98,-2718.05 162.98,-2718.05 0,0 -438.94,-204.79 -1775.08,-275.96 -1252.26,264.58 -1702.32,-1115.21 -1494.36,-1486.68 207.96,-371.47 1322.12,-221.72 1322.12,-221.72z"/>
  <g id="_1711172731408">
   <path class="fil4" d="M9453.67 16879.51l792.15 502.71c0,0 1047.48,175.42 334.96,390.53 -712.52,215.11 -2331.75,-113.77 -2331.75,-113.77 0,0 123.03,-728.65 254,-825.23 130.97,-96.58 950.64,45.77 950.64,45.77z"/>
   <path class="fil4" d="M6516.81 11487.08c0,0 395.02,229.39 1105.42,443.71 416.45,125.68 940.32,222.78 1302.27,281.78 379.7,58.53 686.57,341.01 776.56,714.39 13.31,50.36 20.1,102.37 20.1,154.53 0,58.36 -8.56,116.57 -25.16,172.49 -138.1,413.26 -110.05,3822.38 -110.05,3822.38l-1239.3 59.53c0,0 196.06,-619.39 -45.51,-946.4 -241.57,-327.02 162.98,-2718.05 162.98,-2718.05 0,0 -438.94,-204.79 -1775.08,-275.96 -1252.26,264.58 -1702.32,-1115.21 -1494.36,-1486.68 207.96,-371.47 1322.12,-221.72 1322.12,-221.72z"/>
  </g>
  <path class="fil17" d="M9058.92 17147.01l792.15 502.71c0,0 1047.48,175.42 334.96,390.53 -712.52,215.11 -2331.75,-113.77 -2331.75,-113.77 0,0 123.03,-728.65 254,-825.23 130.97,-96.58 950.64,45.77 950.64,45.77z"/>
  <path class="fil18" d="M6295.63 13462.7c1336.14,71.17 1775.08,275.96 1775.08,275.96 0,0 -126.74,2323.55 52.92,2661.69 191.82,358.78 -171.45,1002.76 -171.45,1002.76l1239.3 -59.53c0,0 0,-40.22 0,-112.18 -3.7,-592.14 -12.7,-3341.67 110.33,-3710.22 16.58,-55.9 25.14,-114.11 25.14,-172.47 0,-52.16 -6.79,-104.17 -20.07,-154.56 -90,-373.42 -396.96,-655.74 -776.58,-714.39 -362.21,-58.74 -885.82,-155.84 -1302.27,-281.52l-20.37 -6.35c-697.71,-211.67 -1084.78,-437.36 -1084.78,-437.36 0,0 -825.23,-57.15 -1031.87,314.33 -26.46,48.15 -140.49,142.88 -145.26,219.34 -30.96,511.73 260.35,1403.9 1349.89,1174.5z"/>
  <path class="fil7" d="M8258.02 11293.93l23.55 491.07c0,0 109.01,-2.91 271.46,-12.7 554.3,-33.07 1731.69,-142.61 1331.64,-470.96 -343.96,-282.31 -949.84,-192.35 -1316.82,-100.54 -134.67,33.87 -238.13,67.73 -283.1,83.87 -17.47,5.82 -26.73,9.26 -26.73,9.26z"/>
  <path class="fil7" d="M5114.53 7952c0,0 158.75,136.79 355.6,288.13 219.6,59.8 476.25,112.98 659.61,148.17 -56.89,-215.64 -6.35,-449.79 77.52,-655.9 90.72,-214.01 212.07,-415.26 358.85,-595.63l-1103.3 -398.73c78.05,226.22 26.46,478.9 -57.41,695.06 -73.72,184.64 -172.19,359.7 -290.86,519.05l0 -0.15z"/>
  <path class="fil4" d="M8264.64 11432.31l16.93 352.69c0,0 109.01,-2.91 271.46,-12.7l14.82 -571.76c-134.67,33.87 -238.13,67.73 -283.1,83.87l-20.11 147.9z"/>
  <path class="fil8" d="M8192.14 11801.67l337.88 -16.14 15.87 -610.66 -270.4 12.97 -83.35 613.83z"/>
  <path class="fil9" d="M4969.8 12431.1c714.37,742.68 2046.54,-139.96 2404.78,-401.37 58.21,-42.6 90.75,-68.79 90.75,-68.79 -132.29,-134.67 -343.96,-259.29 -425.19,-596.64 -76.85,-343.23 -130.53,-694.86 -157.38,-1045.59 -21.96,-279.14 266.44,-810.67 183.09,-1075.79 -83.35,-265.12 -426.51,-352.16 -570.71,-592.14 -37.84,-62.44 -75.41,-121.18 -112.45,-172.51 -266.17,-370.42 -729.98,-619.92 -729.98,-619.92 -987.97,-337.37 -1065.5,1073.91 -1040.89,1117.83 24.61,43.92 -88.37,1599.66 357.98,3454.91z"/>
  <path class="fil4" d="M4962.39 10398.59c0,0 573.88,1598.6 827.08,1699.41 144.99,57.68 935.82,-4.5 1585.11,-68.26 58.21,-42.6 90.75,-68.79 90.75,-68.79 -132.29,-134.67 -239.98,-412.22 -320.94,-749.29l-833.16 2.91c0,0 67.47,-476.25 -7.14,-1558.12 -74.61,-1081.87 -763.31,-844.01 -763.31,-844.01 -1135.85,325.7 -578.39,1586.16 -578.39,1586.16z"/>
  <path class="fil4" d="M8192.14 11801.67l145.79 -6.88 65.88 -613.04 -128.32 6.09 -83.35 613.83z"/>
  <path class="fil9" d="M5560.35 8743.63c0,0 687.92,-236.27 763.31,844.01 75.4,1080.28 7.94,1558.13 7.94,1558.13l2032.52 -7.41 -78.05 726.54c0,0 -2222.48,264.58 -2476.48,164.31 -254,-100.27 -827.34,-1699.15 -827.34,-1699.15 0,0 -558.01,-1260.73 578.11,-1586.44z"/>
  <path class="fil4" d="M5585.49 7150.59c36.78,-158.75 -132.29,-163.78 -185.21,-317.5l1103.83 396.87c-82,100.61 -156.52,208.32 -221.69,320.55 -58.8,14.5 -118.91,23.35 -179.36,26.3 -268.34,13.25 -340.05,-252.13 -517.58,-426.22z"/>
  <circle class="fil7" transform="matrix(0.998848 -0.0479781 0.0479781 0.998848 6121.58 6560.24)" r="924.97"/>
  <path class="fil4" d="M5643.7 9429.69c0,0 292.63,1386.14 638.18,1527.69 345.55,141.55 188.91,171.71 188.91,171.71m-827.08 -1699.4l0 0 0 0z"/>
  <path class="fil4" d="M6849.66 10212.59c0,0 -244.48,76.46 -529.17,-288.93m529.17 288.93l0 0 0 0z"/>
  <circle class="fil16" cx="5008.7" cy="5272.06" r="423.33"/>
  <path class="fil16" d="M4711.31 5495.63c-73.54,-78.46 -114.52,-182.03 -114.52,-289.58 0,-107.55 40.98,-211.12 114.53,-289.58 -6.88,5.56 -13.76,11.11 -20.11,17.2 -85.07,79.97 -133.4,191.68 -133.4,308.5 0,233.8 189.6,423.4 423.4,423.4 107.72,0 211.52,-41.15 289.99,-114.91 6.61,-6.09 12.44,-12.7 18.26,-19.05 -75.87,62.82 -171.38,97.19 -269.89,97.19 -116.7,0 -228.28,-48.17 -308.23,-133.13l-0.03 -0.04z"/>
  <path class="fil16" d="M4953.13 5655.44c-8.43,0.46 -16.95,0.77 -25.43,0.77 -213.6,0 -393.82,-159.23 -420.13,-371.18 0,8.73 0,17.46 0,26.46 13.97,223.03 199.06,396.91 422.56,396.91 233.78,0 423.37,-189.59 423.37,-423.37 0,-8.79 -0.31,-17.73 -0.83,-26.46 0,-9 -1.85,-17.46 -2.91,-26.46 0,0.28 0,0.59 0,0.85 0,223.42 -173.65,408.45 -396.61,422.5l-0.02 -0.02z"/>
  <path class="fil4" d="M6462.57 5640.09c98.69,48.68 211.67,62.18 317.5,92.87 105.83,30.69 213.78,86.78 260.35,186.8 34.13,73.55 30.16,160.6 65.88,233.36 51.33,105.83 169.86,154.52 278.87,196.06 -93.66,125.68 -294.75,91.55 -425.98,6.09 -131.23,-85.46 -244.21,-211.67 -396.88,-244.74 -23.67,-4.63 -47.86,-7.04 -72.06,-7.04 -131.07,0 -252.55,68.95 -319.77,181.42 -41.8,73.29 -56.62,158.75 -77.26,240.24 -52.92,214.84 -158.75,428.63 -343.96,550.6 -185.21,121.97 -461.17,121.18 -606.43,-45.77 -84.67,-97.37 -112.98,-229.92 -138.11,-356.39 -13.52,-55.82 -20.42,-113.37 -20.42,-170.84 0,-3.09 0.09,-6.37 0.09,-9.37 8.47,-151.87 109.54,-281.25 211.67,-393.96 120.39,-132.29 248.44,-259.29 376.5,-385.5 110.6,-109.01 238.13,-293.69 404.81,-306.65 192.04,-15.36 327.77,155.83 485.2,232.82z"/>
  <path class="fil16" d="M6436.11 5613.63c98.69,48.68 211.67,62.18 317.5,92.87 105.83,30.69 213.78,86.78 260.35,186.8 34.13,73.55 30.16,160.6 65.88,233.36 51.33,105.83 169.86,154.52 278.87,196.06 -93.66,125.68 -294.75,91.55 -425.98,6.09 -131.23,-85.46 -244.21,-211.67 -396.88,-244.74 -23.67,-4.63 -47.86,-7.04 -72.06,-7.04 -131.07,0 -252.55,68.95 -319.77,181.42 -41.8,73.29 -56.62,158.75 -77.26,240.24 -52.92,214.84 -158.75,428.63 -343.96,550.6 -185.21,121.97 -461.17,121.18 -606.43,-45.77 -84.67,-97.37 -112.98,-229.92 -138.11,-356.39 -13.51,-55.82 -20.41,-113.37 -20.41,-170.84 0,-3.09 0.09,-6.37 0.09,-9.37 8.47,-151.87 109.54,-281.25 211.67,-393.96 120.39,-132.29 248.44,-259.29 376.5,-385.5 110.6,-109.01 238.13,-293.69 404.81,-306.65 192.03,-15.36 327.77,155.83 485.19,232.82z"/>
  <path class="fil1" d="M3971.01 11489.73l2567.23 0c124.2,-0.03 224.91,100.68 224.91,224.87l-0.01 16.43c0.01,124.17 -100.7,224.88 -224.89,224.88l-2567.24 0.01c-124.18,-0.01 -224.89,-100.72 -224.89,-224.91l-0.01 -16.39c0.01,-124.21 100.72,-224.92 224.91,-224.92z"/>
  <path class="fil4" d="M3746.11 11727.85l0 36.78c0.02,105.91 85.92,191.81 191.84,191.81l2633.37 0.01c105.93,-0.01 191.83,-85.91 191.83,-191.83l-0.01 -36.77 -3017.03 0z"/>
  <rect class="fil1" x="9059.18" y="11975.76" width="518.85" height="6610.04"/>
  <path class="fil4" d="M9059.19 12404.38l518.85 0 0 -428.63 -518.85 0 0 428.63z"/>
  <rect class="fil1" x="8811" y="11501.89" width="13716.43" height="857.24"/>
 </g>
</svg>
