<?xml version="1.0" encoding="UTF-8"?>
<!DOCTYPE svg PUBLIC "-//W3C//DTD SVG 1.1//EN" "http://www.w3.org/Graphics/SVG/1.1/DTD/svg11.dtd">
<!-- Creator: CorelDRAW 2020 (64 Bit) -->
<svg xmlns="http://www.w3.org/2000/svg" xml:space="preserve" width="50.9458mm" height="50.9458mm" version="1.1" style="shape-rendering:geometricPrecision; text-rendering:geometricPrecision; image-rendering:optimizeQuality; fill-rule:evenodd; clip-rule:evenodd"
viewBox="0 0 682.81 682.81"
 xmlns:xlink="http://www.w3.org/1999/xlink"
 xmlns:xodm="http://www.corel.com/coreldraw/odm/2003">
 <defs>
  <style type="text/css">
   <![CDATA[
    .fil1 {fill:#EE3147}
    .fil0 {fill:#F6F6F6}
   ]]>
  </style>
 </defs>
 <g id="Camada_x0020_1">
  <metadata id="CorelCorpID_0Corel-Layer"/>
  <circle class="fil0" cx="341.4" cy="341.4" r="341.4"/>
  <path class="fil1" d="M179.23 270.04l14.19 0 0 14.19 -14.19 0 0 -14.19zm324.34 -125.83l-14.19 0 0 14.19 14.19 0 0 -14.19zm28.22 0l-14.19 0 0 14.19 14.19 0 0 -14.19zm-56.44 0l-14.19 0 0 14.19 14.19 0 0 -14.19zm84.84 -40.57l-127.35 -0.3 0 58.74 -19.21 57.33 60.56 -17.73 86 0 0 -98.05zm-14.86 15.55l-95.42 -0.2 0 40.19 -13.14 39.23 41.44 -12.13 67.12 0 0 -67.09zm-203.83 -12.44l104.02 213.65 104.02 213.65 -161.35 -50.83 -46.69 50.83 -44.92 -50.83 -163.12 50.83 97.39 -200.03 -22.23 -6.51 -86 0 0 -98.05 127.35 -0.3 0 58.74 1.36 4.05 90.17 -185.21zm-97.96 230.99l-81.67 171.61 130.22 -41.51 34.9 -295.35 -69.73 137.18 11.92 35.58 -25.64 -7.51zm-92.53 -67.7l14.19 0 0 14.19 -14.19 0 0 -14.19zm56.44 0l14.19 0 0 14.19 -14.19 0 0 -14.19zm-69.98 -25.02l95.42 -0.2 0 40.19 13.14 39.23 -41.44 -12.13 -67.12 0 0 -67.09zm197.99 257.35l0 -293.83 -26.04 264.35 26.04 29.48zm12.06 -293.85l0 294.12 26.69 -29.62 -6.87 -68.09 15.84 0 7.66 62.43 130.29 41.99 -89.81 -188.72 -76.59 -147.55 26.7 217.56 -15.52 0 -18.37 -182.12z"/>
 </g>
</svg>
