<?xml version="1.0" encoding="UTF-8"?>
<!DOCTYPE svg PUBLIC "-//W3C//DTD SVG 1.0//EN" "http://www.w3.org/TR/2001/REC-SVG-20010904/DTD/svg10.dtd">
<!-- Creator: CorelDRAW 2020 (64 Bit) -->
<svg xmlns="http://www.w3.org/2000/svg" xml:space="preserve" width="210mm" height="297mm" version="1.0" style="shape-rendering:geometricPrecision; text-rendering:geometricPrecision; image-rendering:optimizeQuality; fill-rule:evenodd; clip-rule:evenodd"
viewBox="0 0 21000 29700"
 xmlns:xlink="http://www.w3.org/1999/xlink"
 xmlns:xodm="http://www.corel.com/coreldraw/odm/2003"
 data-name="Layer 1">
 <defs>
  <style type="text/css">
   <![CDATA[
    .str0 {stroke:#535461;stroke-width:52.92;stroke-miterlimit:22.9256}
    .fil3 {fill:none;fill-rule:nonzero}
    .fil11 {fill:#4D4981;fill-rule:nonzero}
    .fil1 {fill:#535461;fill-rule:nonzero}
    .fil15 {fill:#784F69;fill-rule:nonzero}
    .fil10 {fill:#8B416F;fill-rule:nonzero}
    .fil7 {fill:#C90036;fill-rule:nonzero}
    .fil14 {fill:#FD6F8D;fill-rule:nonzero}
    .fil9 {fill:#FEC3BE;fill-rule:nonzero}
    .fil2 {fill:white;fill-rule:nonzero}
    .fil12 {fill:black;fill-rule:nonzero;fill-opacity:0.050980}
    .fil13 {fill:black;fill-rule:nonzero;fill-opacity:0.101961}
    .fil4 {fill:#C90036;fill-rule:nonzero;fill-opacity:0.501961}
    .fil5 {fill:#C90036;fill-rule:nonzero;fill-opacity:0.701961}
    .fil6 {fill:#C90036;fill-rule:nonzero;fill-opacity:0.800000}
    .fil0 {fill:url(#id0);fill-rule:nonzero}
    .fil8 {fill:url(#id1);fill-rule:nonzero}
   ]]>
  </style>
  <linearGradient id="id0" gradientUnits="userSpaceOnUse" x1="9466.88" y1="18923.75" x2="9466.88" y2="9056.66">
   <stop offset="0" style="stop-opacity:0.25098; stop-color:gray"/>
   <stop offset="0.541176" style="stop-opacity:0.121569; stop-color:gray"/>
   <stop offset="1" style="stop-opacity:0.101961; stop-color:gray"/>
  </linearGradient>
  <linearGradient id="id1" gradientUnits="userSpaceOnUse" xlink:href="#id0" x1="5496552.92" y1="-2191892.6" x2="5496552.92" y2="-8114174.38">
  </linearGradient>
 </defs>
 <g id="Camada_x0020_1">
  <metadata id="CorelCorpID_0Corel-Layer"/>
  <path class="fil0" d="M18455.9 17798.74l-1732.13 0c39.66,-79.81 60.39,-167.93 60.39,-257.11 0,-0.29 0,-0.64 0,-0.92l0 -7887.18c0,-320.21 -259.69,-579.9 -579.9,-579.9l-13407.66 0.01c-320.19,-0.01 -579.88,259.68 -579.88,579.89l-0.02 7887.48c0.01,0.26 0.01,0.61 0.01,0.89 0,89.19 20.73,177.31 60.43,257.12l-1793.38 0c0.01,-0.03 0.01,-0.03 0.01,-0.03 -84.7,0 -153.4,68.69 -153.4,153.4 0,0.26 0,0.54 0,0.8l0 123.74c0.01,473.71 384.16,857.85 857.85,857.85l16563.24 0.02c473.68,-0.02 857.83,-384.16 857.83,-857.86l0.01 -123.72c0,-0.36 0,-0.74 0,-1.1 0,-84.7 -68.7,-153.4 -153.4,-153.4 0,0 0,0 0,0l0 0.02zm-10519.51 645.14l-302.76 -322.97 3687.5 0 -164.45 168.77 -3220.29 154.2z"/>
  <path class="fil1" d="M3007.96 9185.25l12983.6 0c346.26,0 627.07,280.81 627.07,627.07l0 7588.23c0,346.26 -280.81,627.07 -627.07,627.07l-12983.6 0.01c-346.26,-0.01 -627.07,-280.82 -627.07,-627.09l-0.01 -7588.22c0.01,-346.26 280.82,-627.07 627.09,-627.07z"/>
  <rect class="fil2" x="2680.68" y="10474.17" width="13608.24" height="7223.74"/>
  <circle class="fil2" cx="9484.93" cy="9844.67" r="119.97"/>
  <path class="fil1" d="M11585.87 17712.75l-467.48 479.6 -3296.04 0 -422.45 -479.6 -6712.6 0c-82.74,-0.02 -149.87,67.1 -149.87,149.87l0 120.77c0,462.98 375.45,838.43 838.43,838.43l16187.96 0.02c462.97,-0.02 838.42,-375.47 838.42,-838.45l0 -120.77c0.01,-82.77 -67.11,-149.89 -149.88,-149.89l-6666.49 0.02z"/>
  <path class="fil3 str0" d="M4419.28 10923.85l0 6144.56 10160.95 0"/>
  <path class="fil4" d="M5318.38 16828.75l1048.98 0 0 -1618.64 -1048.98 0 0 1618.64z"/>
  <path class="fil5" d="M7116.84 16828.75l1048.98 0 0 -3057.45 -1048.98 0 0 3057.45z"/>
  <path class="fil4" d="M8915.29 16828.48l1048.98 0 0 -2188.01 -1048.98 0 0 2188.01z"/>
  <path class="fil6" d="M10713.74 16828.74l1048.99 0 0 -3537.06 -1048.99 0 0 3537.06z"/>
  <rect class="fil7" x="12512.19" y="12032.69" width="1048.98" height="4795.79"/>
  <path class="fil3 str0" d="M5827.91 14220.98l1828.37 -1648.56 1798.46 1558.51 1768.52 -1888.23 1798.46 -749.47"/>
  <circle class="fil7" cx="5827.91" cy="14220.98" r="209.74"/>
  <circle class="fil7" cx="9424.81" cy="14101.01" r="209.74"/>
  <circle class="fil7" cx="11253.19" cy="12242.7" r="209.74"/>
  <circle class="fil7" cx="7656.28" cy="12542.22" r="209.74"/>
  <circle class="fil7" cx="13021.72" cy="11493.23" r="209.74"/>
  <path class="fil8" d="M20825.08 17975.32c-110.53,-36.39 -274.45,-78.44 -404.39,-63.62 -123.74,-45.02 -414.63,-161.75 -613.33,-337.53 1.36,-48.28 2.44,-97.96 2.44,-146.56 0,-123.66 -5.4,-248.41 -15.66,-371.53 -101.64,-1155.74 126.98,-1917.61 126.98,-1917.61 0,0 179.54,-581.24 159.87,-1063.54 11.59,21.83 18.06,34.77 18.06,34.77 15.64,-415.98 157.45,-846.52 263.66,-1114.76 4.06,-1.22 8.04,-2.69 11.88,-4.39l118.63 -281.45c9.42,-16.4 16.97,-33.9 22.36,-52.03l19.15 -44.49 -5.67 -2.42c1.89,-7.28 3.77,-15.1 5.67,-22.92l0.01 0c75.76,-320.54 134.79,-1080.79 134.79,-1080.79 203.28,-800.15 -279.3,-1294.05 -279.3,-1294.05l-819.02 -704.71c4.05,9.16 6.79,18.89 8.07,28.83l-6.73 -5.93c-11.6,-33.15 -24.26,-72.79 -36.66,-118.08 28.85,-20.7 56,-43.97 80.86,-69.29 93.08,-87.92 157.27,-202.26 183.61,-327.57 10.69,-65.52 16,-132.24 16,-198.66 0,-32.6 -1.37,-65.35 -3.79,-97.8l-13.48 -339.96c-0.57,-66.5 -7.54,-132.98 -20.32,-198.15 -61.74,-269.59 -338.07,-458.31 -615.48,-470.71 -4.01,-0.1 -8.96,-0.1 -13.08,-0.1 -83.76,0 -167.82,4.67 -251.04,14.01 -48.16,3.85 -97.2,6.02 -145.59,6.02 -23.22,0 -47.08,-0.44 -70.09,-1.3 -0.73,-0.05 -1.43,-0.03 -2.11,-0.03 -7.5,0 -14.85,-2.18 -21.13,-6.26 -6.24,-6.23 -9.82,-14.63 -9.98,-23.45 -0.29,-3.48 -0.47,-6.99 -0.47,-10.47 0,-28.39 10.34,-55.83 29.04,-77.15 10.85,-9.5 23.53,-16.77 37.22,-21.3l-19.67 4.59c9.68,-7.64 20.65,-13.59 32.34,-17.53 -71.8,12.59 -141.09,37.81 -204.34,74.15 -17.43,11.41 -33.51,24.94 -47.75,40.15 -37.65,33.05 -62.21,78.67 -69,128.33 -33.73,-28.5 -59.01,-65.89 -72.81,-107.85 -2.11,-8.53 -3.19,-17.33 -3.19,-26.13 0,-8.8 1.08,-17.6 3.21,-26.15 -4.85,5.92 -9.52,12.04 -14.01,18.32 0,-1.88 0,-3.77 0,-5.66 -52.06,63.98 -88.99,139.11 -107.83,219.44 -12.8,-15.34 -19.83,-34.72 -19.83,-54.71 0,-2.78 0.13,-5.59 0.41,-8.36 -4.05,12.68 -7.82,25.34 -11.32,38.02 -0.6,-4.19 -0.92,-8.44 -0.92,-12.68 0,-4.23 0.32,-8.48 0.93,-12.67 -28.29,86.92 -42.92,178.1 -42.92,269.59 0,10.6 0.21,21.3 0.53,31.8 0,101.9 45.29,260.69 154.48,296.55 5.66,1.89 11.32,3.24 17.25,4.59 -71.07,110.55 -109.07,239.53 -109.07,371.1 0,334.55 241.64,620.38 571.5,676.04 1.79,12.38 3.48,25.4 5.1,39.06l4.31 0c2.96,26.96 5.39,56.61 7.01,86.81 -27.49,26.89 -57.81,51.29 -90.05,72.26 -91.58,54.09 -194,88.07 -299.79,99.23 -126.41,9.87 -249.4,46.7 -360.41,107.81 -130.75,73.06 -274.99,179.55 -320.29,308.95 -75.48,215.68 -491.19,551.32 -769.95,593.1l-99.22 -5.66 -7.27 -2.16 0 1.88 -24.26 -1.34 -1.35 0 -6.49 0.01 0 1.34 -25.07 -1.34c0,0 -2.43,11.59 -5.93,32.09 -140.19,-48.26 -438.1,-181.98 -825.77,-533.8 -431.34,-391.72 -1015.02,-314.62 -1240.12,-265.28 -17.68,3.88 -30.27,19.55 -30.27,37.64 0,14.07 7.68,27.03 20.01,33.79 90.84,49.88 231.58,122.4 296.55,130.49 0,0 -134.8,141 8.63,215.68 14.11,6.8 29.62,10.36 45.3,10.36 22.55,0 44.53,-7.35 62.54,-20.89 69.55,-50.96 262.86,64.44 542.96,124.56 0,0 790.45,817.95 1182.97,943.57 8.94,17.75 19.13,35.32 29.95,52.06l24.26 -1.89 0 1.89 10.23 -0.02 2.97 26.96c0,0 610.36,-32.09 808.77,-253.69 14.02,-12.57 26.99,-26.46 38.54,-41.28l-212.17 2668.97 1.9 0.03 -1.88 25.34 156.09 0c2.71,79.03 4.86,159.49 4.86,239.22 0,248.54 -16.52,497.08 -47.41,743.47l0 1739.95c0,0 -8.09,153.13 310.03,377.44 331.06,231.46 656.24,484.05 962.54,746.81l38.56 33.43c-58.5,532.44 -180.9,1524.81 -283.07,1561.75l63.08 11.05c-107.83,136.68 -414.09,512.23 -507.37,522.21 -114.31,12.67 -190.61,190.6 0,228.61 120.87,20.52 242.89,31.2 364.9,31.2 262.52,0 523.23,-48.49 768.04,-142.86 66,-26.07 109.4,-89.84 109.4,-160.79 0,-7.72 -0.55,-15.47 -1.56,-23.1l-36.93 -280.38c6.99,3.87 12.64,9.82 16.18,16.98 25.34,76.3 0,-101.64 0,-101.64 103.61,-335.08 187.03,-679.45 245.23,-1024.78l377.44 326.21c0,0 7.55,-9.44 20.75,-26.96 92.47,209.75 257.47,638.93 220.53,953.28 -50.68,431.35 431.35,50.68 380.94,-203.28 -40.98,-205.42 142.34,-1076.21 213.78,-1401.88 2.58,-9.82 3.71,-20.21 3.71,-30.62 0,-62.85 -40.59,-118.57 -100.41,-137.82l0.01 0.02z"/>
  <path class="fil9" d="M16880.67 10930.06c0,0 -359.63,-62 -892.89,-545.66 -421.91,-382.55 -991.03,-307.34 -1210.48,-259.07 -17.24,3.71 -29.56,18.97 -29.56,36.62 0,13.73 7.52,26.37 19.59,32.93 88.7,48.53 226.19,119.43 290.62,127.52 0,0 -132.91,137.49 8.35,211.09 13.93,6.82 29.3,10.39 44.82,10.39 22.17,0 43.75,-7.25 61.41,-20.64 67.94,-49.6 256.65,63.08 530.29,121.59 0,0 1066.51,1103.71 1314.54,916.61l-136.69 -631.38z"/>
  <path class="fil9" d="M18716.87 9429.51c0,0 99.21,421.64 0,719.27l446.45 62 396.84 -198.41 0 -260.43c0,0 -186.02,-396.85 -136.42,-855.69l-706.87 533.26z"/>
  <path class="fil10" d="M19980.99 18568.7c0,0 323.51,632.46 272.83,1054.11 -50.68,421.64 421.64,49.6 372.04,-198.42 -40.16,-200.58 138.84,-1051.42 208.67,-1367.92 2.2,-10.01 3.32,-20.27 3.32,-30.53 0,-61.02 -39.2,-115.15 -97.14,-134.2 -149.08,-49.06 -398.73,-109.19 -524.09,-17.25 -185.21,136.15 -235.63,694.21 -235.63,694.21z"/>
  <path class="fil10" d="M18754.07 19263.18c0,0 -421.64,545.66 -533.26,558.06 -111.61,12.4 -186.01,186.01 0,223.22 117.74,20.42 237.88,30.86 357.53,30.86 255.56,0 509.35,-47.1 747.87,-138.73 64.69,-25.25 107.37,-87.7 107.37,-157.22 0,-7.46 -0.51,-14.94 -1.49,-22.32l-71.16 -531.09 -606.86 37.22z"/>
  <path class="fil11" d="M18059.61 13472.04l-404.4 53.93c26.72,228.28 40.44,460.22 40.44,690.71 0,244.22 -15.89,488.45 -45.51,730.5l0 1698.44c0,0 -7.82,149.62 302.75,367.18 325.4,226.31 641.5,471.54 940.59,728.1l1125.28 974.84c0,0 446.45,-545.66 384.45,-868.09 0,0 -744.08,-235.63 -843.3,-620.06 -56.88,-219.99 -345.34,-404.39 -581.51,-520.32 -248.95,-120.72 -407.22,-373.45 -407.22,-650.27 0,-57.29 6.89,-114.58 20.31,-170.19 13.78,-55.71 35.17,-109.48 63.37,-159.38 198.41,-347.23 483.64,-1128.52 483.64,-1128.52l-545.64 -1040.05 -533.25 -86.82z"/>
  <path class="fil12" d="M18059.61 13472.04l-404.4 53.93c26.72,228.28 40.44,460.22 40.44,690.71 0,244.22 -15.89,488.45 -45.51,730.5l0 1698.44c0,0 -7.82,149.62 302.75,367.18 325.4,226.31 641.5,471.54 940.59,728.1l1125.28 974.84c0,0 446.45,-545.66 384.45,-868.09 0,0 -744.08,-235.63 -843.3,-620.06 -56.88,-219.99 -345.34,-404.39 -581.51,-520.32 -248.95,-120.72 -407.22,-373.45 -407.22,-650.27 0,-57.29 6.89,-114.58 20.31,-170.19 13.78,-55.71 35.17,-109.48 63.37,-159.38 198.41,-347.23 483.64,-1128.52 483.64,-1128.52l-545.64 -1040.05 -533.25 -86.82z"/>
  <path class="fil11" d="M18654.87 19301.18c0,0 731.67,124.02 756.47,198.42 24.81,74.4 0,-99.21 0,-99.21 0,0 421.65,-1277.34 323.52,-2405.59 -98.14,-1128.24 124.01,-1872.59 124.01,-1872.59 0,0 260.43,-843.29 111.61,-1326.94 -148.81,-483.65 -1711.38,-272.83 -1711.38,-272.83 0,0 545.66,1277.34 533.26,1885 0,0 62,1835.38 173.62,2046.21 -1.08,-1.06 -174.7,1797.13 -311.11,1847.53z"/>
  <path class="fil2" d="M18740.87 9751.94c0,0 74.41,458.3 818.48,260.43l-494.97 3769.71c0,0 -1438.55,49.6 -1426.15,-124.02l296.55 -2281.56 806.09 -1624.56z"/>
  <path class="fil13" d="M18760.28 9727.14c-96.84,95.33 -223.25,155.32 -358.29,170.08 -123.34,9.39 -243.59,45.25 -352.12,104.62 -127.52,71.44 -269.59,175.24 -312.74,301.68 -86.81,248.03 -632.46,657.26 -880.49,570.46l86.82 744.07c0,0 706.87,-37.2 830.89,-310.03l-210.53 2655.22 186.02 0c0,0 99.21,-719.27 173.62,-868.09 74.4,-148.81 223.22,-967.3 235.62,-1165.72 12.41,-198.42 198.42,-1339.34 359.64,-1536.69l242.64 -589.05 -1.08 -76.55z"/>
  <path class="fil13" d="M18760.28 9764.34c-110.73,86.61 -243.51,141.33 -383.13,157.73 -123.34,9.56 -243.37,45.52 -351.8,105.11 -127.52,71.44 -269.59,175.24 -312.73,301.68 -86.81,248.03 -632.46,657.26 -880.49,570.46l86.81 744.07c0,0 706.88,-37.2 830.89,-310.03l-210.82 2653.6 186.03 0.01c0,0 99.21,-719.27 173.62,-868.09 74.4,-148.81 223.22,-967.3 235.62,-1165.72 12.4,-198.42 198.42,-1339.34 359.64,-1536.68l266.36 -578 0 -74.14z"/>
  <path class="fil14" d="M18760.28 9739.54c-110.73,86.61 -243.51,141.33 -383.13,157.73 -123.3,9.34 -243.55,45.2 -352.09,104.57 -127.52,71.44 -269.59,175.24 -312.73,301.68 -86.81,248.03 -632.46,657.26 -880.49,570.46l86.81 744.07c0,0 706.88,-37.2 830.89,-310.03l-210.52 2655.22 186.02 0c0,0 99.21,-719.27 173.62,-868.09 74.4,-148.81 223.22,-967.3 235.62,-1165.72 12.4,-198.42 198.42,-1339.34 359.64,-1536.69l266.62 -576.65 -0.26 -76.55z"/>
  <path class="fil13" d="M19392.74 9262.08c-16.18,-117.54 16.18,-190.87 31,-328.63l-706.87 533.26c0,0 16.99,71.97 29.93,177.39 35.49,5.66 71.52,8.62 107.48,8.62 0.08,0 0.25,0 0.33,0 245.35,0 421.94,-191.68 538.13,-390.64z"/>
  <circle class="fil9" cx="18853.28" cy="8946.12" r="669.66"/>
  <path class="fil13" d="M18122.41 8289.67c-0.29,-10.59 -0.61,-21.57 -0.61,-32.22 0,-102.14 18.53,-203.65 54.54,-299.16 -9.06,13.63 -13.89,29.6 -13.89,45.92 0,23.7 10.17,46.26 27.9,61.96 21.57,-115.23 80.77,-220.1 168.21,-298.15 -47.72,7.82 -72.25,66.86 -60.39,113.77 16.13,45.78 44.82,86.16 82.77,116.42 -4.05,-70.91 42.86,-137.22 102.18,-176.04 61.74,-35.48 129.4,-59.96 199.53,-72.23 -46.15,16.36 -77,60.03 -77,108.99 0,3.21 0.15,6.44 0.4,9.63 0.22,8.64 3.81,16.86 10,22.91 6.1,3.91 13.22,6 20.48,6 0.72,0 1.44,-0.02 2.16,-0.06 22.13,0.86 44.59,1.29 66.84,1.29 47.46,0 95.35,-2.12 142.61,-5.93 81.58,-9.18 163.65,-13.73 245.72,-13.73 4.03,0 8.32,0 12.34,0 269.59,11.32 540.54,195.45 600.93,458.3 12.47,63.76 19.17,128.6 19.68,193.57l13.2 331.86c2.27,31.74 3.75,64.03 3.75,95.88 0,65.01 -5.33,130.19 -15.7,194.32 -37.67,179.06 -153.53,332.15 -315.63,417.24 -97.31,-141 -105.94,-322.17 -139.64,-490.12 -5.32,-38.74 -19.76,-75.73 -42.08,-107.83 -17.79,-24.51 -46.28,-39.04 -76.59,-39.04 -9.21,0 -18.39,1.36 -27.2,4 -36.4,14.56 -52.03,70.09 -21.84,94.89 -26.96,31.81 -77.37,8.09 -107.83,-20.21 -84.97,-80.69 -143.72,-185.47 -167.97,-300.07 -12.14,-57.69 -24.26,-128.86 -80.88,-148.55 -12.97,-3.55 -26.4,-5.36 -39.86,-5.36 -6.66,0 -13.38,0.46 -19.98,1.35 -118.08,8.09 -302.75,56.88 -417.06,19.41 -104.87,-34.25 -149.09,-189.54 -149.09,-289.01z"/>
  <path class="fil15" d="M18134.82 8277.26c-0.3,-10.58 -0.62,-21.56 -0.62,-32.21 0,-102.14 18.53,-203.65 54.54,-299.16 -9.06,13.63 -13.89,29.6 -13.89,45.92 0,23.7 10.17,46.26 27.9,61.96 21.57,-115.23 80.77,-220.1 168.21,-298.15 -47.71,7.82 -72.25,66.86 -60.39,113.77 16.13,45.78 44.82,86.16 82.77,116.42 -4.05,-70.91 42.86,-137.22 102.18,-176.04 61.74,-35.48 129.4,-59.96 199.53,-72.23 -46.15,16.36 -77,60.03 -77,108.99 0,3.21 0.15,6.44 0.4,9.63 0.22,8.64 3.81,16.86 10,22.91 6.1,3.91 13.22,6 20.48,6 0.72,0 1.44,-0.02 2.16,-0.06 22.13,0.85 44.59,1.28 66.84,1.28 47.46,0 95.35,-2.12 142.61,-5.93 81.59,-9.17 163.65,-13.73 245.73,-13.73 4.02,0 8.31,0 12.33,0 269.59,11.32 540.54,195.46 600.93,458.31 12.47,63.76 19.17,128.6 19.68,193.57l13.2 331.86c2.28,31.74 3.76,64.03 3.76,95.88 0,65.01 -5.33,130.19 -15.7,194.32 -37.68,179.06 -153.54,332.15 -315.64,417.24 -97.31,-141 -105.94,-322.17 -139.64,-490.12 -5.32,-38.74 -19.76,-75.73 -42.08,-107.83 -17.79,-24.51 -46.28,-39.04 -76.59,-39.04 -9.21,0 -18.39,1.36 -27.2,4 -36.4,14.56 -52.03,70.09 -21.84,94.89 -26.96,31.81 -77.37,8.09 -107.83,-20.21 -84.97,-80.69 -143.72,-185.47 -167.97,-300.07 -12.14,-57.69 -24.26,-128.86 -80.88,-148.55 -12.97,-3.55 -26.39,-5.36 -39.85,-5.36 -6.67,0 -13.39,0.46 -19.99,1.34 -118.08,8.09 -302.75,56.89 -417.06,19.42 -104.86,-34.53 -149.08,-189.54 -149.08,-289.02z"/>
  <path class="fil13" d="M16799.8 10874.25c0,0 -99.22,458.31 86.81,744.08l105.41 -8.63 -57.43 -727.91 -134.79 -7.54z"/>
  <path class="fil14" d="M16826.76 10874.25c0,0 -99.22,458.31 86.81,744.08l105.41 -8.63 -57.43 -727.91 -134.79 -7.54z"/>
  <path class="fil13" d="M19491.95 9622.8l799.89 688.27c0,0 471.24,483.64 272.83,1264.93 0,0 -86.82,1140.92 -186.02,1190.52 0,0 -347.23,694.48 -372.04,1351.74 0,0 -465.06,-936.3 -675.87,-365.84 -210.82,570.47 -700.95,651.07 -700.95,651.07l272.83 -3374.23c0,0 688.54,-1196.71 589.33,-1406.46z"/>
  <path class="fil14" d="M19516.75 9622.8l799.89 688.27c0,0 471.24,483.64 272.83,1264.93 0,0 -86.82,1140.92 -186.02,1190.52 0,0 -347.23,694.48 -372.04,1351.74 0,0 -489.86,-985.9 -700.95,-415.44 -211.09,570.46 -675.87,700.95 -675.87,700.95l272.83 -3372.88c0,0 688.55,-1198.34 589.33,-1408.09z"/>
  <path class="fil9" d="M19882.59 12529.82c0,0 198.42,-136.42 520.86,235.62l-793.68 1438.56 -266.63 -402.51c0,0 564.25,-1110.46 539.45,-1271.67z"/>
  <path class="fil13" d="M19690.37 12610.42c0,0 438.89,492.82 610.09,413.83l158.52 -369.06 -594.99 -255.58 -173.62 210.81z"/>
  <path class="fil14" d="M19690.37 12585.62c0,0 438.89,492.82 610.09,413.83l158.52 -369.07 -594.99 -255.57 -173.62 210.81z"/>
  <path class="fil13" d="M19370.1 13707.4c0,0 208.93,428.11 320.28,452.91l-161.76 186.02 -235.62 -446.45 77.1 -192.48z"/>
  <path class="fil11" d="M19357.7 13720.61c0,0 208.93,428.12 320.28,452.92l-161.76 186.02 -236.17 -447.25 77.65 -191.69z"/>
  <path class="fil13" d="M19752.38 11072.67c0,0 24.8,892.89 -74.41,1227.72m74.41 -1227.72l0 0 0 0z"/>
  <path class="fil13" d="M17743.37 11246.29c0,0 148.82,-49.61 148.82,-173.62m-148.82 173.62l0 0 0 0z"/>
 </g>
</svg>
